<svg version="1" xmlns="http://www.w3.org/2000/svg" width="4420" height="4420" viewBox="0 0 3315.000000 3315.000000"><path d="M1607 8.7c-219.4 7.8-425.8 55.4-623.6 143.9-28.1 12.6-84.8 40.8-112.4 55.9-99.4 54.3-192.2 118-278.5 191-62.7 53-139.8 130.1-193 193-213.2 251.8-345.2 558-381.5 885-7.2 65.3-9.5 108.7-9.5 183 0 59.7.7 79.4 4.1 124.5 18.4 245.6 90.4 481.4 212.1 694.5 145.9 255.4 360 469.9 615 615.8 288.6 165.2 617.6 239 950.8 213.1 191.5-14.8 378-62.8 553.7-142.5 140.7-63.8 275.7-150.1 393.8-251.8 44.5-38.3 108.6-100.6 145.2-141.1 122.2-135.3 217-280.6 289.1-443.1 118.7-267.3 163.5-561.5 130.7-856.2-19-170.1-65.2-337.8-136.6-495.7-13.1-29-43.4-89-59.4-117.9-93.4-168-214.7-318-359.6-444.7-140.9-123.3-306.5-224.3-478.9-292.1-175.8-69.2-355.2-106.7-546-114.3-22-.9-94.6-1.1-115.5-.3zM1740 48c42.7 2.3 83.6 5.9 121.5 10.6 297.9 37.1 577.6 155.9 811.9 344.8 138.5 111.7 258.4 246.2 353.8 397.2 139.4 220.5 223.4 474.5 243.3 735.4 3.1 41.3 3.6 54.5 4.2 106 .6 53.2-.3 86.3-3.3 130-17.3 253.1-93.7 497.5-223.2 714.5-182 304.9-459.5 542.2-787.8 673.6-171.2 68.5-349.8 106.3-538.4 114-31.9 1.3-120.8.7-148.5-1.1-75.7-4.7-138-12-203.7-24-419-76.4-791.7-316.9-1036.3-669-60.1-86.4-112.8-181.1-155.1-278.6-149.1-343.9-173-736.1-66.8-1096.6C181.1 969 300.7 757 469.1 571.5c21-23.2 79.2-81.4 102.4-102.5 173.7-157.6 367.2-270.7 586.8-342.9C1304.5 78 1451.6 52.4 1616 46.6c17.9-.6 104.5.3 124 1.4z"/><path d="M1752.2 339.2c-39.1 99.7-71.4 182-71.7 182.8-.5 1.3 3.9 2.4 27.1 6.6l27.6 5.1 1.3-3.1c.7-1.7 17.8-47.7 38-102.1 20.3-54.5 37.1-99.3 37.4-99.7.4-.4 13.9 54.5 30 122 16.2 67.5 29.7 123 30 123.4.3.4 33.2-46.1 73-103.3 39.9-57.2 72.8-104.2 73.2-104.5.4-.2.6 6 .3 13.8-.5 15.1-4.4 192-4.4 199.9v4.6l27 4.8c14.8 2.7 27.1 4.7 27.3 4.4.6-.6 3-389.9 2.5-390.5-.3-.2-39.8 55.9-87.9 124.7-67.1 96.1-87.5 124.6-88.1 123.2-.4-1-16.3-67.1-35.4-146.8-19-79.8-34.9-145.3-35.3-145.8-.4-.4-32.8 80.8-71.9 180.5zM1329.1 224c-38.1 10.3-69.6 19.2-70 19.8-.7 1.2-6.4 195.2-5.8 195.9.3.2 4.1-.6 8.6-1.8l8-2.2 4.8-8.5c8.6-15.4 23.9-29.4 38.3-35.2 19-7.7 37.2-8.4 54.9-2.1 11.7 4.1 18.6 8.6 28.6 18.6 10.4 10.3 15.8 19.4 19.9 33.8 6.9 23.7 5.1 42.5-6 63.9-5.8 11-19.2 24.1-30.4 29.5-12.1 6-21.4 8.4-35 9-13.4.6-20.1-.7-31.9-6.3-9-4.2-17.9-10.4-28.6-20l-8.1-7.1-15.3 22.1-15.3 22.1 4.9 4.4c32.8 30 73.5 41.8 114.1 33 53.6-11.6 91.7-46.4 105-95.8 2.3-8.7 2.6-11.4 2.6-29.1.1-15.5-.3-21.3-1.8-28-6.5-30.1-20-55.9-38-72.7-32.6-30.5-74.6-39.7-118.3-25.8l-7.3 2.3.1-15.7c.1-8.6.4-22.3.8-30.5l.6-14.9 52.7-14.2c29-7.8 53-14.4 53.4-14.7.3-.4-2.3-11.4-5.8-24.5-5.5-20.5-6.6-23.8-8.3-24-1.1 0-33.2 8.3-71.4 18.7zM1018.4 340.4c-30.6 5-61.4 23.8-78.7 48.1-22.3 31.5-28.9 74.3-16.6 109.1 10.7 30.3 29.7 52.9 55.9 66.3 19.4 10 35.6 13.6 57 12.8 19.8-.7 33.6-5.1 50.7-16.2 4.7-3.1 8.6-5.5 8.8-5.3.1.2-4.2 32.2-9.6 71.2-5.5 39-9.8 71.1-9.6 71.2.4.5 48.2 7.2 48.6 6.8.8-.7 30.2-213.9 31.2-226.4 2.3-30.2-2.1-56.4-13.2-78-16-31.1-42.8-50.3-81.4-58.5-10.6-2.3-32.7-2.8-43.1-1.1zm35.9 50.7c12 3.4 20.2 8.3 29.7 17.8 13.6 13.6 20 28.7 20 47.2 0 37.6-30.4 68.3-67.5 68.1-29.8-.2-55.1-18.8-65.1-47.7-2.4-6.9-2.8-9.6-2.8-19 0-13.1 1.8-20.4 7.7-32.4 8.9-18.2 28.4-32.2 50.3-36.1 6.7-1.2 19-.3 27.7 2.1zM1588.8 405.9c-19.7 1.5-36.1 3-36.5 3.4-.8.8 2.1 44.4 3 45.3.6.6 75-4.3 77.2-5 .7-.3.5-7.7-.7-23.2-.9-12.6-1.7-23-1.7-23.2-.1-.3-2.7-.2-41.3 2.7zM2522 457.1c-11.4 1.2-24.8 8.1-31.2 16l-3.1 3.9h-9.1c-11.9 0-21 2.1-29.6 6.6-12.3 6.4-21.6 16.7-28 30.7l-3 6.6-3.7-.5c-10.2-1.4-13.9-2.9-23.2-9.2-16.9-11.5-44.7-27.9-51.2-30.1-12.9-4.4-25.1-3.8-37.5 1.9-18.7 8.4-35.3 25.9-42.5 44.5-5.9 15-9.9 55.5-6.9 69.4l1.2 6-4 6.1c-4.7 7-5.8 12.2-4.4 20.1 2.4 12.6 8.1 22.6 18.6 32.8 8.9 8.4 13.6 10.4 26.1 10.8 6.6.3 12.5 1.2 17.2 2.6l7.3 2.2v4c0 10 5.7 18.3 16.2 23.6 5.6 2.8 5.7 3 4.7 5.7-2.3 6.2-8.3 15.5-13.5 21.2-6.4 6.8-15.1 12.9-27.4 19-4.7 2.3-13.9 7.4-20.5 11.2-6.6 3.8-15.8 9.1-20.4 11.7-6.6 3.7-8.7 5.4-9.4 7.7-2.7 8.3-9 10.2-28.9 8.4-14.6-1.3-25.3-.8-34.5 1.6-7.9 2-18.7 7.8-23.8 12.7-4.4 4.2-4.5 4.5-4.5 10.4 0 3.8.5 6.5 1.3 7.2 2.7 2.2 10.5 4.2 25.2 6.6 8.3 1.4 17.1 3.2 19.7 4 4.9 1.7 10.1 6 9.5 7.9-.2.6-2.4 2.2-4.8 3.6-11.3 6.3-14.9 11.4-14.9 21.2v5.6l5 1.1c6.6 1.4 15.9 1.4 21.8 0 13-3.1 36.8-17.4 49.2-29.4 8.7-8.4 12.2-9.6 20.5-7 10.7 3.2 14.2 1.6 28-12.7 9.2-9.5 10.9-10.8 20.5-15.5 11-5.3 24.9-10.7 25.7-9.9.3.3-1.5 3.9-3.8 8.1-3.9 6.8-5.1 8.1-10.9 11.5-14.9 8.7-34.6 17.5-73.9 33.2-38.8 15.5-43.7 18.2-57.7 32.3-16.2 16.4-29.9 41-47.9 86.5-20.9 52.7-30.1 66-49.7 71.6-5.1 1.4-10 3.6-13.4 6.1-3 2.1-6.8 4.8-8.5 6-4.3 3.1-11.6 3.7-31.2 2.4-24.8-1.6-38.6-3.8-100-15.5-31.1-6-45.6-7.7-92.7-11.1-30.1-2.2-25.9-3.3-34.1 9.2-13.7 21.1-21.9 41.2-21.9 53.8 0 16.5 11.6 53.2 28 88.1 4.6 9.9 5.1 10.6 7.4 10 1.3-.3 12.6-2.4 25-4.6 31.4-5.5 62.3-9.7 80.4-10.9 23.5-1.7 55.9-7 132.7-22.1 19.8-3.9 41.4-8 48-9.1 26.5-4.5 44.7-9.2 56.3-14.5 12.3-5.6 12.8-6.1 14.2-15.6 1.7-11.8 5.4-28.9 8.5-38.6 3-9.4 9.5-25.5 10.2-24.9.2.3-2.1 11.2-5.2 24.3-3.1 13.2-7 30-8.7 37.4-1.9 8.4-3.6 14-4.7 14.8-.9.7-7 4.8-13.6 9.1-12.8 8.3-25.5 17.6-67.5 49.6-14.6 11.1-34.4 25.5-44 32-19.1 13-29.8 20.8-40.5 29.8-3.8 3.2-13.7 10.4-22 16-16 10.7-26.9 18.9-35 26l-4.9 4.4 1.8 5.9c2.9 9.5 11 24.3 18.1 33.1 16.9 21.2 44.7 38.9 78.6 50.3 19.8 6.6 46.8 12.2 65.5 13.5 4.9.3 9.9.8 11 1 1.9.4 2.3-.1 2.9-4.2 1.7-11.4 9.4-27.9 24.8-53.3 5.5-9.1 16.3-28.2 24-42.5 16.8-31.2 28.2-50.2 38.3-64.2 9.6-13.1 14.6-18.1 29.2-29.2 13.5-10.2 23.8-20.7 27.3-27.7 3.3-6.8 3.6-16.3 1-28.1-1.2-5.1-2.1-11.4-2.1-14 0-6.3 10.2-45.4 12.8-49 7.2-10.3 10.1-21.2 13.2-49.8 1.2-10.9 3.1-23.3 4.1-27.5 2.5-9.7 7.1-19.4 10.1-21.4 3.4-2.2 32.9-13.6 50.8-19.5 20.8-7 46.7-14.3 62.3-17.6l12.7-2.7 11.3 10.7c6.8 6.5 12.4 12.8 14.3 16.1 7.1 12.5 10.3 13.8 32.6 13.2 14.2-.4 17-.7 21.3-2.6 2.7-1.3 5.8-3 6.8-4 3-2.7 5.8-8.9 6.4-14.3.3-2.7.7-4.9.8-4.9.1 0 2.6.4 5.4 1 12.1 2.3 27.3 3.1 37.5 2 19.2-2.1 33.6-8.9 46.7-21.9 11.4-11.4 16.7-23.9 20.1-47.6 2-13.9 1.6-60-.7-82-1-9.9-1.9-19.1-1.9-20.5-.1-2.2.4-2.5 7.1-3.6 20.5-3.5 39.1-11.5 49.8-21.5 12.8-12.1 16.8-26.9 10.9-41.5-7.2-18.1-21.6-40.6-63.9-99.9-12.2-17.1-25.8-36.4-30.2-43-16.4-24.1-33.5-43.1-47.5-52.6-6.7-4.6-17.5-9.9-20-9.9-1 0-2.4-1.7-3.6-4.3-1-2.3-3.6-5.7-5.8-7.5-2.1-1.8-4.9-4.2-6.2-5.2-2.3-1.9-2.3-2.2-1.7-14.7.7-12.7.6-12.9-2.2-18.3-5-9.7-14.6-13.5-30.3-11.9zm-43.6 36.5c-14 2.3-20.6 6.1-35 19.7l-8.8 8.2 3-5.5c1.6-3 5.4-8 8.4-11.1 8.8-8.8 19.2-12.8 33.5-12.7h7l-8.1 1.4zm18.6 17.9c0 4.6-10 9.1-28.4 12.9-8.4 1.8-14.6 2.1-14.6.7 0-1 9-8.8 13.3-11.6 5.1-3.3 10.1-4.4 20-4.5 9.7 0 9.7 0 9.7 2.5zm31.5 58.5c27.5 12.5 37.2 18 44.5 25.4 10.6 10.8 14.1 16.4 34.8 55.6 7.9 15.1 17.2 31.8 20.5 37 17.4 27.4 22.5 37.1 27.6 52.7 3.7 11.4 7.3 32.3 6.9 40.5-.3 6.3-.3 6.3-3.5 6.6-4.2.4-4.9-1.1-5.7-12.3-.8-11.5-3.6-24.6-7.6-36-4.1-11.5-7.5-18.1-16.8-33-4.1-6.6-9.3-14.8-11.4-18.3-2.1-3.4-10.4-18.7-18.4-34-15.4-29.4-26.7-47.5-33.2-53.4-6-5.4-16.7-11.3-39.2-21.6-11.3-5.1-21.3-10.1-22.2-10.9-3-2.7-1.6-7.3 2.2-7.3.9 0 10.6 4.1 21.5 9zm-193 27.1c7.2 2.7 12 7.1 15.4 14.2 3.8 7.7 5.5 17.9 4.6 27.7-.9 10.2-2.1 12.5-10.7 21.2-8.4 8.6-18.9 14.4-27.5 15.5-4.9.5-5.3.4-6.4-2.1-1.6-3.5.7-6.1 6.3-7 6.6-1.1 15.2-6.3 22.1-13.5 6.4-6.6 6.5-6.7 7.1-13.6.4-4 .3-9.9-.4-13.9-3.3-20.9-14.6-25.4-50-19.6-16.3 2.6-30.9 3.1-33.3 1.1-2-1.6-2.2-5.6-.5-6.7.6-.4 5-.8 9.7-.9 4.7-.1 14.9-1.2 22.6-2.3 7.7-1.2 15.8-2.3 18-2.5 6.8-.7 17.8.4 23 2.4zm-4.6 18.3c3.6 3.3 5.6 11.2 5.6 22.3v10.2l-3.4 3.5c-3.8 4-17.5 11.3-26.1 14.1-8.5 2.8-18.2 2.4-25.8-1-16-7.2-32-34.5-25.8-44 1.9-3 3.2-3 14.6-.8l8.6 1.6 16.9-3.6c9.4-2 17.9-3.8 19-4.1 4.6-1.1 14.4 0 16.4 1.8zm94.9.2c2.5 1.7 2.9 4.6.8 6.3-.8.7-3.8 1.3-6.8 1.5-9.8.6-15.7 5.5-21.9 18.2-4.4 9-6.7 10.6-10 7.3-2.3-2.3-2.1-3.5 2.8-13.2 6.9-13.9 16.9-21.2 29.3-21.6 2-.1 4.6.6 5.8 1.5zm-68.8 61c1.6 4.1 1.1 12.5-.9 17-2 4.4-9.4 10.4-12.8 10.4-2.5 0-4.3-1.9-4.3-4.7 0-1.5 1.4-3.2 4.5-5.3 4.9-3.4 6-5.9 5.3-12.4-.7-5.5.5-7.6 4.3-7.6 2.2 0 3.2.6 3.9 2.6zm138.3 52.6c8.4 9 21.4 38.8 20 46-.8 4.6-4.6 11.9-11.5 22.1-6.2 9.2-8 10.7-10.7 9-3.3-2.1-2.4-5.7 4-15.4 3.4-5.2 7.1-11.3 8.1-13.6l1.9-4.2-3.7-9.8c-4.9-13.1-9.8-22.4-15.1-28.3-4.4-4.9-5.3-7.6-3.1-9.8 2.3-2.3 5.2-1.2 10.1 4zm-117.1 37.5c1 1.1 1.8 4.9 2.3 9.8.8 9.4-.1 11.1-8.5 16.5-4.4 2.8-5.4 3.1-7.6 2.2-4.2-2-3.2-5.6 2.6-9.8l5-3.6-.6-6.7c-.5-5.5-.4-7 1-8.4 2.2-2.2 3.9-2.2 5.8 0zm101.2 94.4c1.3 1.9 1.3 2.7-.5 7.3-4.2 10.4-10.5 21.2-16 27.1-3.2 3.4-11 9.9-17.4 14.4-18.1 12.9-21.4 19.3-12.5 23.9 4.1 2.1 5.4 2.3 14.8 1.9 10.6-.5 13.2.3 13.2 3.8 0 4.1-7.2 6.1-19.3 5.3-12.1-.8-20.9-6.2-22.3-13.6-1.6-8.5 5-17.4 21.8-29.3 14.8-10.5 19.1-15.4 25.9-29.5 3.2-6.6 6.2-12.4 6.6-12.7 1.3-1.4 4.2-.6 5.7 1.4zm72.4 16.1c.4 3.6-2.6 9.1-8.7 16.1-7.2 8.2-10.1 12.2-10.1 13.8 0 .8 1.3 2.2 2.9 3.2 6.5 3.8 12.1 12.3 18.8 28.5 4.6 11.2 4.7 13.8.6 14.8-3.3.9-4.6-.6-8.2-9.9-5.5-13.8-8.1-17.9-15.7-25.3-6.2-5.9-7.4-7.6-7.4-10.3 0-4.9 2.2-9 9-16.6 3.4-3.9 7.5-9.4 9.2-12.3 2.8-4.8 3.3-5.3 6.2-5 2.5.2 3.2.8 3.4 3zm-257.4-.6c.9.8 1.6 2.2 1.6 2.9 0 3.1-6.5 8.6-14.7 12.5-9.3 4.5-17 11-21 17.8-4.6 7.7-8.4 23.1-16.2 64.2-5.3 28-5.6 28.8-8.7 29.6-1.7.4-3.1.1-4.1-.9-1.5-1.5-1.2-3.6 2.6-23.9 12.2-63.3 14.9-71.7 26.6-83.5 4.5-4.5 8.5-7.3 14.6-10.2 4.6-2.2 9.9-5.4 11.7-7.1 3.7-3.4 5.4-3.7 7.6-1.4zM733.4 529.1l-33.1 28 2.7 15.7c1.5 8.6 3.8 21.7 5 29 1.3 7.3 2.6 13.1 3.1 13 .4-.2 10.9-8.9 23.3-19.3 12.4-10.5 23-19 23.5-19s45 52.4 99 116.5c53.9 64.1 98.7 116.9 99.4 117.4 1 .7 6.7-3.6 21.3-15.9 10.9-9.2 19.9-17.4 19.9-18.1 0-.8-214.1-256.1-229.5-273.5-1.4-1.6-4.1.5-34.6 26.2z"/><path d="M1506.3 617.1c-6.1 3-10 7.9-15.9 20.4-6.8 14.2-11.5 27.2-15.5 42.3l-3.2 12.1-7.6 1.6c-15.1 3.3-18.1 4.4-22.9 8.9l-4.6 4.3-7.6-6.6c-9.8-8.4-18.4-13.4-28.5-16.8-7.2-2.4-9.5-2.6-22.6-2.7-14.2 0-14.8.1-20.5 3-8.2 4-11.7 9.2-12.2 18-.5 7.9 1.1 12.5 7.3 21.5l4.4 6.4-10.8 1.6c-41.2 6.2-61.5 25-73.5 68.4-1.4 4.9-3 11.5-3.6 14.6l-1.1 5.7-4.4.6c-7.3 1.1-16 6.2-35 20.6-26.8 20.2-37.3 25.8-60.7 32.6-6.7 1.9-12.3 3.6-12.4 3.7-.1.2 1 13.4 3.6 41.6 1.5 15.8.9 29.3-1.5 37.4-2.2 7.4-1 12.6 4.6 21.3 6.3 9.7 6.1 10-9.3 20-21.4 13.8-29.4 23.1-32.4 37.6-2.4 11.3-.6 20 5.6 27.8 1.6 2.1 3 4.1 3 4.5 0 .3-1.1 2.1-2.4 3.8-9.7 12.8-13.5 32.4-10.6 55.6 1.3 9.8 1.5 9.3-9.3 20.8-8.8 9.5-11.2 13.2-13.2 20.8-2.5 9.6-1.7 18.3 2.5 29 1.1 2.8.9 3.6-4.4 11.8-11.3 18-17.1 39.1-19.1 69.9-.7 10.7-.8 10.8-8.6 10.8-6.2 0-22.2 4.6-30.5 8.8-7.5 3.8-18.7 11.4-21.4 14.7-1 1.2-.2 5.4 4 22.6 2.8 11.6 4.9 21.3 4.7 21.6-1.1 1-23.8 7.2-33.9 9.2-19 3.7-26.2 4.4-53.8 4.6-23 .2-28.3.5-32.4 2-7.3 2.5-11.5 5.5-17.4 12.4-4.3 4.9-7 6.9-13.5 10-15.8 7.6-42.4 12.4-82.8 15-17.4 1.2-20.3 2.2-31.8 10.9-10 7.7-16.9 11-25.7 12.5-6.3 1.1-6.8 1-11.9-1.6-8-4.2-16.6-11.8-32-28.2-26.8-28.6-45.1-46.7-55.4-55.1l-10.4-8.3-54.4-18.2c-62.7-20.9-55.6-17.3-84.5-43-37.6-33.5-44.1-37.4-105.8-63.8-48.7-20.9-49.2-21.2-64.5-37.3-11.7-12.2-20.3-23.5-42-55.3-29.5-43.2-37.6-52.5-51.3-59.2-6.8-3.4-8.4-3.8-15.1-3.8-9 0-15.8 2.9-23 9.7l-4.4 4.2.6 21c2 66.8 15.6 136.6 37.4 192.1 10.3 26.1 27.3 56.8 37.9 68.2 4.4 4.6 40.1 29.3 53.7 37.1 7.7 4.4 21.8 11 29.8 14.1 1.7.6 5.4 5 10.5 12.3 4.2 6.2 11.7 15.3 16.4 20.1 6.6 6.7 8.3 9 7.1 9.4-31.4 10.9-40.8 21.4-59 66.1-3.9 9.5-7.2 18-7.3 18.9-.2 1.1 2.9 2.6 11.2 5.7 6.3 2.3 12.5 4.9 13.8 5.7 2.5 1.5 2.6 2 4.2 12.8 2.9 20.1 20.1 35.3 47.6 42.2 6.5 1.7 10.4 3.4 15.2 6.6l6.4 4.4 6.2-2.1c9.7-3.2 14.7-7.5 18.5-15.9l1.8-4.1 4.6 5.8c6.8 8.7 19.3 17.5 27.8 19.5l2.5.6-.4 11.4c-.6 14.7 1 19.8 8 26.9l5 5.1-.6 5.1c-.4 2.8-1.6 8.5-2.7 12.8-1 4.2-1.9 10.5-1.9 14.1 0 5.6.4 7.1 3.3 11.3 2.4 3.6 4.3 5.3 7.7 6.6 6.3 2.4 18.2 2.3 23.7-.1 5.5-2.5 12.8-9.3 16.1-15l2.7-4.6.7 7c1 8.8 4.9 22.6 9.3 32.7 1.8 4.3 3.2 7.8 3.1 7.8-4.3 0-28.5 7.5-30.4 9.5-.2.2 1.3 4.8 3.3 10.1 3.4 9.2 3.6 10.1 2.4 14.2-2.4 8.5-8.7 16.3-31.4 38.7-19.5 19.2-22.8 22.8-25.4 28.5-2.8 5.9-3.1 7.4-3.1 16.6 0 19 6.8 72 13.5 105.9 1.9 9.7 3.5 18.1 3.5 18.5 0 .4-1.7.6-3.7.4-2.1-.2-9.2-.8-15.8-1.4-11.6-1.1-38.1-4.5-43.7-5.6l-2.8-.6v11.4c0 19.9 1.9 48.9 4.1 61.8 8.2 49.8 33.5 75.6 86.4 88.6 8.2 2 37.9 7.4 40.7 7.4.4 0 .8 1.5.8 3.3 0 3.3.2 3.4 10.3 7.7 9.6 4.1 25.5 11.8 28.6 13.9 1.2.7.5 1.9-3.2 6.1-2.6 2.9-6.1 8.2-7.9 11.9-2.8 5.7-3.3 7.9-3.6 16.2-.6 14.8 3.3 25.5 15.7 43l6.2 8.6 19.2-4.8c10.6-2.7 19.5-4.9 19.9-4.9.4 0 1 2.1 1.3 4.7 3.6 26.5 7.3 43.3 14 64.3 3.7 11.5 4.8 16.5 5.2 24.1.8 13.9-2.2 40.4-9.7 84.9-1.7 9.8-3 18.5-3 19.4 0 1.4 3.3 1.6 31.5 1.6H690v38.5c0 23.7.4 38.5 1 38.5.5 0 9.4-2.5 19.7-5.5 20.8-6.2 39.4-10.2 49.3-10.7l6.5-.3.3 5.5c.2 3 .8 6 1.3 6.7.6.6 3.6 1.5 6.7 1.8 14.3 1.6 22.2 5.3 35.8 16.6 24.5 20.2 29.9 22.7 85 38.5l43.6 12.5 59.9 29.9c32.9 16.5 60.1 30 60.4 30 .2 0 .6-7.5.7-16.8l.3-16.8 33.5 2.3c45.3 3 81.2 6.1 94.5 8.1 6.1.9 14.9 1.6 19.6 1.6 7.5-.1 9.6-.5 15-3.1 7.7-3.6 13.7-9.4 19.1-18.5 2.2-3.8 5.3-7.9 6.9-9.2 3.3-2.8 10.6-4.6 18.9-4.6 8.6 0 34.4-2.7 49-5.2 6.9-1.1 13-2 13.5-2 .6 0 4.3 1.4 8.3 3.1 9.4 3.9 31.3 9.3 51.2 12.5 16.8 2.7 42.1 5.6 49.6 5.6 5.7 0 15.2 3.7 42.6 16.6 71.7 33.9 109.6 46.2 147.8 48.1 19.7.9 35.6-1.8 49-8.4 10.8-5.4 24.4-19.2 32.5-33 3.3-5.6 6.2-10.3 6.6-10.3.6 0 1.4 1.8 12.2 27.2 7.6 17.9 25.9 64.5 30.3 77.1 5.7 16.7 5.2 23.2-3.5 45.4-2.8 7.1-5.6 15.6-6.2 18.8-1.1 5.9-.6 16.1 1.1 25.6 1.4 7.2-.2 11.2-7.3 18.2-3.4 3.4-11.6 9.8-18.1 14.2-24.6 16.5-31.6 27.7-31.6 50.5 0 7.5-.3 9.3-1.9 10.9-1 1-8.4 5-16.3 8.9-17.4 8.4-24 13.9-28.4 23.4-2.3 5.2-2.8 7.6-2.8 14 0 6.6.5 8.6 3.3 14.2 5.7 11.6 13 16.1 41.8 25.5 11.6 3.8 24.1 8.5 27.9 10.4 14.2 7.2 21 14.9 24.4 28l2.2 8.4 7 3.4c13.7 6.6 25.5 3.8 36.2-8.4 4.6-5.3 9-8.7 11.4-8.7.5 0 3 2.7 5.5 6 5.8 7.4 11.4 11.6 18.6 13.7 7.1 2 15.2.8 28.3-4.2l9-3.5 12.1 6.1c6.7 3.4 13.1 6.8 14.2 7.5 1.1.8 2.5 1.4 3.1 1.4.6 0 2.4-4.9 3.9-11 1.6-6 3.2-11.4 3.5-12.1.5-.6 4.5 1.9 10.8 6.8 17.7 13.8 32.2 21.3 50.1 26 20.2 5.3 50.2 4 72.8-3.2 7.3-2.3 8.8-2.4 12.5-1.4 5.8 1.5 11.6 4.6 22.8 12 12.6 8.3 17 10.1 24 10.1 10.7 0 15.7-4.6 28.5-26 4.8-8.1 8.9-14.8 9-15 .2-.2 2 .7 4.2 2.1 6.1 3.8 10.9 5 18.4 4.5 9.6-.7 15-4.3 33-21.6l14.7-14.3 1.2 5.4c1.6 7.9 5.8 13.9 11.5 16.7 4.1 2 5.6 2.2 12.2 1.6 4.1-.4 14-2 22.1-3.7 8-1.6 14.6-2.8 14.8-2.7.1.2-.4 3.2-1.1 6.8-.7 3.6-1.6 9.5-1.9 13.1l-.6 6.7 7 2.6c8.2 3 15.6 3.4 20.7.9 1.9-.9 7.2-5 11.9-9.2 4.6-4.2 12.7-11.6 18.1-16.5 5.4-4.8 12.3-10.6 15.5-12.7 3.1-2.1 8.8-6.6 12.7-10 4.8-4.1 7.3-5.6 7.6-4.7.3.7 2.2 6.2 4.3 12.1 2.1 6 4.1 10.9 4.4 11 .3.1 5.9-6.8 12.4-15.3 13.4-17.6 19.9-24.3 27-28.2 2.7-1.4 13-4.9 22.9-7.6 9.9-2.8 19.2-5.5 20.6-6 1.6-.7 5-4.7 9.3-11.1 10.6-16 20.8-25.2 32.1-29.2 14.2-5 38.5-5.5 47.6-1.1 2.4 1.2 9.3 5.8 15.4 10.2 6 4.4 11.2 8 11.6 8 .3 0 2.7-5.4 5.3-11.9 3.7-9.8 4.6-13.2 4.6-18.3 0-9.9-4-17-14.5-25.6l-4-3.3 2.9-5.2c5.3-9.8 14.1-20.9 23.2-29.7 11.1-10.5 22.8-16.9 36.4-19.6 4.7-.9 9-2.2 9.7-2.8.7-.6 1.7-5 2.4-9.7 2-13.4-.5-19.3-17-39.9-8.6-10.7-16.1-21.7-16.1-23.5 0-.6 3.7-1.6 8.1-2.3 22.8-3.6 59.1-17.4 83.1-31.5 18.7-11 26.5-18.3 28.8-26.8 1.8-6.7-2.8-21.5-9.5-30.5l-2.4-3.1 14.2-.6c7.8-.4 19.2-.7 25.2-.8 6.1-.1 13.4-.4 16.3-.7l5.2-.7-9.6-16c-21.9-36.3-25.4-49.8-18.6-73 2.6-9 10.4-34.6 10.7-35.2.1-.2 6.8 2 15 4.7 8.2 2.8 15 5 15.2 5 .1 0 4.7-6.6 10.2-14.8 5.5-8.1 11.6-16.6 13.6-19 6-6.9 14.9-10.5 42.7-17.3l13.6-3.3 1.6-8.5c6.3-35.3 4.3-56.7-8.7-90.6-6.3-16.6-9.9-27.5-11.2-34.5-.4-1.9-.9-4.2-1.1-5.2-.4-1.2.5-2 3.3-2.8 11.8-3.9 21-11.5 28.1-23.5 2.2-3.9 7.1-14.4 10.7-23.5 8.3-20.6 11.7-26.9 17.9-33.7 9.6-10.5 19.8-13.8 42.9-13.8h15.7v-2.5c0-1.4-.7-10.8-1.6-21-.8-10.2-1.6-29.3-1.6-42.5-.1-37.4 2.3-48.8 16.2-78.4 14.1-30.1 17.9-44.3 23.5-88.7l.7-5.1-14.4-.5c-12-.4-15.4-.9-20.9-3-12.1-4.5-23.1-12.4-32.2-23.1l-4.7-5.4 5.5-10.5c3-5.8 6.4-14.1 7.5-18.3 2.4-9.6 2.6-25 .5-38-.8-5-1.5-10.6-1.5-12.5.1-9 8.3-18.6 26.5-30.9 6.1-4.1 11.3-7.7 11.8-8.1.8-.7-5.9-16.7-17.3-41-17.6-38-20.3-45.6-20.3-57 .1-12.9 5.5-29.6 23.7-71.9 5.2-12.4 9.4-22.7 9.1-22.9-.2-.2-12.5 2.5-27.2 6.2-38 9.3-42.2 10-60.3 10.1h-15.5l-6.5-3.2c-4.3-2.2-10.3-6.8-18-13.9-12.1-11.3-25.5-21.6-35.5-27.6-17.1-10.2-41.8-20.4-64.6-26.8l-11.6-3.2 6.4-10.2c7.5-11.8 18.3-33.4 21.2-42.3 2.6-7.8 5.1-22 5.1-28.8 0-12.6-4.5-26.9-11.6-36.7-1.9-2.8-3.3-5.6-3-6.3.3-.8 3.5-5.5 7.1-10.5 13-18 17.5-29.2 17.5-43.9 0-10.6-1.6-16.6-11.4-42.8-17.6-47.1-23.4-71.7-20.6-87.1l1.1-6.2-7.6-12.7c-4.2-7.1-9.6-16.9-12-21.8-19-39.8-25.4-92.8-18.5-153.7 3.1-27.2 3-28.2-3.5-39.3-20.1-34.3-59.7-65.4-83.1-65.5h-6l-1.7-5.4c-1.9-5.8-7.7-13.2-13.1-16.5-2.2-1.4-5-2.1-8.5-2.1-15 0-23 15-14.6 27.3l2.3 3.6-6 12.6c-5.4 11.1-6.1 13.4-6.2 18.8-.2 11.7 6.9 19.7 18.4 20.5 5.6.4 6.4.2 13.2-3.8 3.9-2.4 10.8-7.8 15.3-12.1l8.1-7.8 5.1 2.8c15.8 8.6 36.4 28.2 44.7 42.4l2.6 4.3-2 17.5c-5.2 45.4-3 90.6 6.2 127.4 5.9 23.8 13.4 42.1 25.9 63.7 3.2 5.4 3.9 7.6 3.9 12 0 19.5 6 45.5 17.5 76.9 12.2 33 15.5 43.1 15.5 47.2 0 5.5-3.2 12.2-11.6 23.7-3.8 5.2-9.1 13.1-11.9 17.6-5.3 8.5-12.2 22.1-11.4 22.7.2.2 4.1 3.1 8.5 6.6 9.1 6.9 12.8 11.6 15 18.7 1.9 6.4 1.8 10.6-.6 20-3.5 13.8-13.1 31.4-34.5 63.2-10.8 16.2-19.5 29.5-19.3 29.6.2.2 7.7 1.7 16.8 3.5 32.2 6.3 57.3 13.4 76.8 21.8 19.8 8.4 33.3 17.3 50.2 32.9 18.8 17.3 29.5 23.9 43.6 26.9 8.3 1.8 29.3 1.9 41.6.4 4.9-.7 9.1-1 9.3-.7.3.3-.6 3.6-1.9 7.4-9.3 27.5-9.3 49.5 0 72.6 1.4 3.5 7.1 16.1 12.6 28l10 21.8-3.4 2.7c-6 4.8-15.3 15.1-18.8 20.9-7.5 12.4-9.5 25.4-6.6 44.3 2.2 14.6 2.1 21.7-.7 29.4-2.2 6-4 9-11.7 19.9-6.4 9.1-4.9 19.5 5 33.6 13.3 18.9 33.4 34.8 52.7 41.8 4.3 1.5 7.9 2.8 8.1 3 .5.3-2.8 13.7-5.5 21.9-1.4 4.4-6.5 16.5-11.4 27-9.2 19.9-12.8 30.6-15.4 45.5-2.4 13.6-3.6 38.4-2.8 58.7.5 15.2.4 18.3-.8 18.6-.8.2-4.5 1.1-8.4 2-17.7 4.2-34.4 16.1-44.9 32-6.9 10.5-9 14.8-16.5 33.8-7.3 18.4-10.7 24.3-15.6 26.6-3.3 1.6-4.1 1.5-16.7-.7-7.3-1.2-13.9-2.5-14.7-2.8-1.1-.4-1.2 1.6-.7 11.4 2 35.6 4.6 47.8 17.1 81 9.1 24.1 11.6 37.1 10.1 51.7l-.7 6.4-11.2 3.2c-13.4 3.8-25.3 9.3-32.5 15-4.6 3.6-13.6 14-18.2 20.9l-1.5 2.2-21-7c-11.5-3.8-21-7-21.1-7-.1 0-.7 3.3-1.4 7.4-.7 4.1-1.6 7.9-1.9 8.5-.9 1.3-3 1.4-28.2.8-22-.4-33.9-2.5-33.9-5.8 0-1-2-3.2-4.5-4.9-2.4-1.7-5.6-5-7-7.4-1.4-2.4-3.2-4.7-3.9-4.9-.8-.3-1.7-2-2.1-3.7-.4-1.8-1.8-4.8-3.1-6.7-1.3-2-2.4-4.5-2.4-5.6 0-1.1-2.1-4-4.7-6.4-4.1-3.9-5.1-4.4-8-4-3 .5-3.3.3-3.3-1.9 0-3.1-3.3-6.4-6.5-6.4s-7.4-4.6-7.5-8.1c0-2.5-4.6-7.9-6.7-7.9-2.7 0-3.2-2.9-5.6-35.3-1.1-15.4-1.4-17-3.4-18.5-2.2-1.7-2.2-2.1-2.9-39.7l-.7-38-2.9-2.5-2.8-2.4V2263c0-14.6-.5-38.6-1-53.4-1-29.8-1.2-30.6-7.5-30.6-5.9 0-5.9.1-6.7 37.4-.6 27.9-2.2 87.2-2.7 96.3-.1 1.5-.7 2.3-1.9 2.3-1.1 0-2.7.9-3.7 2-1.7 1.9-1.9 5.1-2.3 40l-.5 38h-2.3c-2.9 0-6.4 3.3-6.4 6 0 1.6-.7 2-3 2-1.7 0-3.8.8-4.9 1.9-1.7 1.7-1.9 4.3-2.5 29.2-.4 15.1-1.1 32.1-1.7 37.9-.5 5.8-.9 14-.9 18.2 0 4.2-.4 7.9-.9 8.2-.5.4-5.9.7-12.1.8-6.1 0-11.3.5-11.6 1-.3.5-5 .7-10.7.3-5.6-.3-18.1-.7-27.7-.9-13.9-.2-18.2-.6-20.7-1.9-1.8-1-4.1-1.7-5.3-1.7-1.5 0-2.6-1.2-3.9-4.4-1.4-3.1-2.8-4.6-4.9-5.4-2.8-.9-3.1-1.6-4.2-8.1-.8-5-2-8.1-3.7-10.2-1.7-1.9-2.7-4.7-3.1-7.7-.6-6.4-2.6-8.5-7.4-7.9-3.4.5-3.8.3-3.8-1.8 0-3.3-5-10.5-7.7-11.1-2-.5-2.3-1.3-2.3-5.1 0-5.6-1.2-7.8-5-9.1-2.2-.8-3-1.7-3-3.6 0-3.1-1.7-7.8-3.3-9.1-3.5-2.9-4.7-6.6-4.8-14.7-.1-13.1-1.2-19.8-3.6-21.7-1.6-1.3-2.2-3.6-3.2-12.1-.6-5.8-1.1-12.6-1.1-15.2 0-3.7-.5-5-2.3-6.5l-2.4-1.8-.6-45.9c-.5-37-.9-46.2-2.1-47.5-3.2-3.8-4.7-9.1-5.6-21.1-.5-6.9-1.4-15-1.9-18s-1-8.1-1-11.2c-.1-6.7-1.7-8.8-6.6-8.8-6.1 0-6.2.6-6.9 38-.5 32.3-1.8 72.1-3.2 101.7l-.6 14.3h-2.8c-1.5 0-3.5.9-4.6 2.1-1.8 2-1.9 4.3-2.2 33.7-.2 20.9.1 31.9.8 32.6.6.6 1 11.6 1 31.1 0 16.5.5 34 1 38.9.7 6.1.7 9.3 0 10-.5.5-1 2.4-1 4.1 0 1.8-.8 3.9-1.7 4.8-4 3.5-8.7 3.7-44.2 2.2-19-.8-34.7-1.3-35-1.2-.9.2-14.7-1.2-23.3-2.4-4.3-.6-8.3-1.7-8.9-2.5-.6-.8-2-1.4-3.1-1.4-2.1 0-10.8-5.6-10.8-7 0-.4-1.3-2.1-3-3.7-2.3-2.1-3-3.7-3-6.6 0-6.5-3.8-11.7-8.7-11.7-2-.1-5.3-6.2-5.3-9.9 0-1.2-1.1-3.2-2.5-4.5-2.2-2.1-2.5-3.1-2.5-9.5 0-6.9-.1-7.3-4-11.5-2.9-3.2-4-5.2-4-7.5 0-2.2-.9-4-2.8-5.9l-2.9-2.7-1.2-21c-.7-11.6-1.7-21.8-2.2-22.7-.5-.9-1.8-1.9-2.8-2.3-2.1-.6-2.4-2.8-3.7-21.9-.7-11-2.1-13.6-7.4-13.6-2.9 0-3-.1-3-5 0-3-.8-6.4-2-8.8-1.9-3.7-2.1-6.4-2.7-37.7-.7-37.4-.5-36.5-7.4-36.5h-3.9v-11.3c0-8.6-.4-11.8-1.6-13.5-2-2.9-7.4-3-10-.1-1.9 2.1-2.2 4.8-4 40.6-.5 10.2-1.1 14.3-1.9 14.3-2.4 0-4 3.3-4.7 9.9-.4 3.6-1.3 8.6-1.9 11.1-.7 2.5-1.4 12.8-1.6 22.9-.4 17.5-.5 18.4-2.6 20.1-3.1 2.6-3.5 10.3-3.6 84.5-.1 34.6-.4 66-.7 69.6l-.7 6.5-4.3 1.3c-2.6.8-6.2 1.1-9.1.7-2.7-.4-6.4-.7-8.3-.7-1.9 0-6.4-.1-10-.1-7.1-.2-12.5-.1-16.6.2-1.4.2-3.5-.2-4.7-.8-1.2-.6-5.8-1.6-10.2-2.2-19-2.5-24.5-3.8-27.5-6.4-2.5-2.1-4-2.5-8.1-2.3-4.1.2-5.3-.2-6.4-1.8-3-4.3-3.7-4.7-8.4-4.4-3.5.3-5.9-.3-9.9-2.4-3-1.5-6-2.7-6.9-2.7-.8 0-2.6-.9-4-2s-3.6-2-4.9-2c-1.9 0-2.4-.5-2.4-2.5 0-3.7-7.1-10.5-11-10.5h-3v-8c0-6.7-.3-8.3-2-10-1.1-1.1-2.4-2-3-2-.6 0-1-4.6-1-11.8 0-13.1.1-13-7.2-16.7-3.7-1.9-3.8-2.1-3.8-7.2 0-7.2-2.5-9.8-8.5-9l-4.2.6-.6-6.7c-.4-3.7-1-22.4-1.3-41.6l-.7-35-2.9-4.3c-2.5-3.6-3.5-4.3-6.2-4.3-4.8 0-6.4 2.4-6.9 10.5-.2 3.8-.9 8.8-1.5 11-1.5 5.8-3.2 34.4-3.2 54.2 0 16.2-.1 17.4-2.2 20.5-1.9 2.7-2.8 3.2-5.5 3-5.9-.6-7 1.8-7.5 16-.4 9.4-.9 13.1-2.1 14.9-1 1.3-1.7 3.6-1.7 5.1 0 1.6-.9 3.7-2 4.8-1.7 1.7-2 3.3-2 11.6 0 5.4-.5 10.5-1.2 11.7-.6 1.2-1.3 7.9-1.6 14.8l-.5 12.6-4.6 1.2c-2.5.7-5.6 2.2-6.9 3.4-2.3 2.1-3.2 2.2-20.5 2.2-10 0-28.1-.4-40.2-.8-12.1-.4-25.8-.9-30.5-1.1-10.3-.3-18.8-2.9-20-6-1.2-3.2-3.5-4.8-6.7-4.6-1.5.1-3.3.2-4 .1-1.8-.2-5.3-6.5-5.3-9.6 0-1.5-.9-3.8-2-5.2-1.1-1.4-2-3.1-2-3.8 0-.7-.7-1.8-1.5-2.5-2.6-2.1-4.3-7.2-4.9-14-1.1-11.9-1.8-16.5-2.8-17.7-.6-.7-1.3-6.3-1.6-12.4-.5-11.8-1.8-14.9-6-14.9-1.7 0-2-1.2-2.5-9.8-.4-5.3-.7-13.7-.7-18.5 0-8.4-1-12.3-3.4-13.9-2-1.3-10.4-2-12.4-.9-3.8 2-4.5 8.3-5.1 50.4l-.6 40.1-3.1.8c-4.2 1.1-5.4 4.3-5.4 14.7 0 4.8-.3 12.3-.7 16.5-.6 7.2-.8 7.8-3.2 8.7-1.4.5-3.7 1.5-5 2.2-3.6 1.8-106.8 1.6-113.1-.3-2.5-.7-7.2-1.2-10.4-1.2-7.4.3-14.6-3.4-14.6-7.3 0-1.3-1-3.6-2.3-5.2-3.1-3.9-4.7-7.8-4.7-11.8 0-5-2.1-13.7-3.8-15.8-.8-.9-2.3-1.7-3.3-1.7-1.9 0-2.2-.8-3.4-8.4-.4-2.1-1.7-4.8-2.9-6-1.3-1.1-2.6-3.6-3-5.5-.3-1.9-1.2-4.2-1.9-5-1.3-1.5-3-6.5-4.2-12.4-.3-1.5-1.4-3.6-2.4-4.6-1-1-2.1-3.1-2.4-4.7-.6-3.1-3.2-14.4-4.2-18.2-.3-1.4-1.9-2.9-3.9-3.7l-3.3-1.4-.8-10.1c-.3-5.6-1.3-11.3-2.1-12.8-1.1-2.1-1.4-8.3-1.4-29 0-15.3-.4-27.1-1-28.2-.5-1-2.3-2.2-3.8-2.8l-2.9-1-.5-24.6c-.6-27.6-.9-28.6-7.4-28.6-5.1 0-6.4 2.8-6.4 13.2 0 8.6 0 8.8-2.9 10.2-1.6.9-3.1 2.3-3.5 3.1-.3.9-.6 11.5-.6 23.5 0 21.7-.7 27-3.5 27-.7 0-1.9.8-2.8 1.8-1.5 1.7-1.7 7.2-1.7 58.9 0 62.5-.9 113.5-2.1 115.4-.5.9-1.5.9-4-.1-2.4-.9-11.9-1.4-31.9-1.6-45.9-.6-57.6-1.1-60.9-2.9-1.7-.8-4.5-1.5-6.2-1.5-1.8 0-5.2-.9-7.6-2.1-5.6-2.7-11.8-3.6-13.8-1.9-1.3 1.1-1.5-2.3-1.5-30.7 0-29.7-.1-32.1-1.8-33.6-1.5-1.4-4.1-1.7-13.4-1.7h-11.6l-2.2-3.5c-6.7-10.9-17.4-19.9-31.5-26.6-9.5-4.5-24-8.9-29.4-8.9-5.3 0-5.1-1.3 1.1-8.5 30.2-34.4 50.3-76.8 57.3-120.7 3.5-22.1 3.7-53.4.5-74.5-12.9-84.6-69.3-155.8-149-187.8-17.6-7.1-34.3-11.5-54.5-14.4l-11.9-1.7-1.7-5.5c-2.1-7.1-8-18.6-14.1-27.8l-5-7.3-13.2.7c-7.2.4-18.1 1.3-24.2 2.1-122.6 15.6-220.7 110.5-240.4 232.4-6.6 40.9-4 74.1 10 131.5 6.5 26.6 25.5 90.4 29.3 98.5 1.9 4 4.5 3.7 9.6-1.3 8.8-8.6 21-14.8 40-20.3l8.6-2.5 2.9 3.3 3 3.2-6.5 1.3c-23.2 4.7-45 17.9-54.9 33.3l-3.2 5h-14.7c-10.1 0-15.1.4-15.9 1.2-.8.8-1.2 6.6-1.2 19.5 0 16.8-.1 18.3-1.7 18.3-7.3.1-31.5 3.6-38.5 5.6-1.7.5-1.8-1.5-1.8-32.5V2405h-27.9c-15.4 0-28.2-.4-28.5-.8-.2-.4.4-6.4 1.4-13.2 4.7-30.9 6.1-55.1 3.9-69.3-.6-4-3.3-14.2-6-22.7-7.8-24.4-11.7-46.2-15.4-85.4-.8-8.7-1.6-16.1-1.8-16.3-.3-.2-12.7 2.7-27.6 6.4-29.8 7.4-28.4 7.4-29.7.6-1-5.1.1-7.2 8-16.1 9-10.1 10.9-13.7 11.4-22.5.4-5.7 0-7.5-2.2-12.1-1.6-3.2-5-7.6-8.1-10.5-5.8-5.2-19.5-13.7-28.2-17.2l-5.1-2.2-.7-9.1c-2.1-26.5-8.8-41.6-21-47.2-9.3-4.4-19.4-2.8-29 4.5-7.8 5.9-11.2 15.3-8.7 24.4 1 3.5.9 3.7-1.2 3.7-4.7 0-24.5-6.3-33.3-10.6-17.9-8.6-27.3-20.8-32.8-42.6-2.2-8.8-5.4-34.3-4.4-35.2.2-.2 3.8.1 7.9.6 4.1.5 16.1 1 26.5 1.1 18.1.2 19.3.1 24.3-2.2 12.1-5.5 15.9-16.1 10.1-28.7-2.6-5.8-5.3-16.4-8.8-34.5-5.3-27.1-12.1-78.8-12.1-91.6v-4.8l21.3-21c26.8-26.4 34.2-36.9 38.2-53.7.7-3.3 1.5-6.2 1.7-6.4.2-.2 10.2-.6 22.1-1 11.9-.4 21.7-.8 21.7-.9 0-.1-5.6-11.6-12.4-25.6-21.1-43.2-20.6-41.5-21.3-77.2l-.5-26.7-21.9.1c-19.3.1-22.4.4-25.6 2-2 1-3.7 1.8-3.9 1.6-.1-.1-.9-1.7-1.8-3.4-.9-1.8-3-4.9-4.7-6.8l-3.1-3.5 1.1-10.8c1.6-15.7 1.4-19.3-2-33.7-1.7-7.1-3.3-13.2-3.5-13.4-.2-.2-4.8 2-10.3 4.8-7.9 4.1-10.6 5-12.8 4.5-4.7-1.2-11.9-9.8-17-20.1-5.4-11.1-7.9-14.4-13.8-17.9-13.4-7.8-29.8-1.3-41.6 16.5-4.8 7.2-5.6 8-7.9 7.4-6-1.4-13.4-4.7-17.3-7.7-4.4-3.3-4.3-3.2-6.7-16.5-1.8-10.1-7.4-19.2-15-24.4l-2.4-1.7 4.7-9.5c8.1-16.5 10.1-17.9 36.7-27.4 16.5-5.9 55.1-21 56.3-22 .4-.4-10.7-8.3-24.5-17.6-30.5-20.4-36.9-26.3-50.8-47.2l-9.5-14.2-10.3-3.6c-18.4-6.4-27.8-11.6-56.7-31.6-16.7-11.5-17.1-11.9-22.8-20.6-28.3-43.2-49.6-114.9-57.2-192.9-.9-8.9-1.5-18.1-1.3-20.5l.3-4.3 5.1 6.4c2.8 3.6 12 16.6 20.4 29 23.7 34.9 36.9 52 51 66.1 6.9 6.9 15.6 14.7 19.3 17.3 5 3.5 18.7 9.9 51.5 24 25.6 11 48.9 21.7 54.5 24.9 13 7.7 26.3 17.9 43.7 33.7 8 7.2 19.8 17.1 26.2 22l11.8 8.8 54.2 18.1 54.3 18.1 8 6.9c8.1 6.9 21.8 20.8 51.3 51.8 18.3 19.3 28.1 27.2 41.9 34l9.4 4.6 11.7-.6c19-.9 33.9-6.4 48.3-18l6.6-5.3 17.7-1.2c59.2-4.2 91.8-14.1 109.1-33.4l4.8-5.3 17.1.3c33.6.6 63.4-3.5 95.6-13.3 10.6-3.2 36.2-12.4 37.3-13.4.4-.5-1.9-11.6-5.3-24.9-3.3-13.3-6-24.6-6-25.1 0-.6 3-2 6.8-3.2 10.5-3.3 19.8-2.9 36.5 1.5 7.7 2.1 14 3.6 14.2 3.4.1-.2-.2-8.4-.7-18.3-2.1-42.7 2.9-71.1 15.7-88.4 1.9-2.7 8-8.3 13.4-12.6l10-7.8-9.4-10.3c-12.6-14-12.6-14.3-3.5-24.2 8.8-9.4 16.3-20.7 18-26.8 1.1-3.9 1-6.3-.4-15.7-3-20.6-2.1-27 5.8-39 7.1-11 8.6-15.2 8.6-24 0-8.4-1.9-13.4-7.3-19.1-2.1-2.1-3.7-4.2-3.7-4.5 0-1.7 8.5-8.5 19.3-15.4 13.6-8.9 19.5-14.5 23.4-22.5 2.6-5.2 2.8-6.6 2.8-17.3 0-11.2-.1-11.7-3.6-19-3.6-7.2-3.7-7.6-2.7-13.9 1-6.4.4-37.3-.8-45.7l-.7-4.2 6.4-2.8c16.1-6.9 32.7-17 50-30.6 5.2-4.1 11.9-9.1 14.9-11.1l5.3-3.6 12 11.7 12.1 11.8 4.3-25.5c2.4-14 5.7-31.1 7.3-37.8 9.8-40.4 21.3-49.1 66.7-50.9l17.3-.6 2.6-5.6c5.9-12.9 6.6-23.4 2.3-34.4-1.1-2.7-1.8-5.2-1.5-5.4 1.8-1.8 14.6 8.7 25.2 20.9 5.2 5.9 10.8 11.5 12.5 12.3 5.2 2.8 12 3 17.2.7 6.1-2.7 9.1-6 13.7-15.2l3.8-7.5 8.1-1.8c10.5-2.3 21.1-7.7 25.5-12.9 3.6-4.1 7.6-11.7 7.6-14.2 0-1.9 6.8-25.3 7.9-27.3.6-1.1 1.8 2.5 4 11.8 1.8 7.4 3.4 14.1 3.7 15 .4 1.3 3.1 1.7 17.9 2.2 59.1 2.3 152.8 13.5 197.4 23.8 30.1 6.9 41.3 6.4 76-3.5 10.7-3.1 20.6-5.7 22-5.8 1.6-.1 4.8 1.3 8.2 3.6 3.1 2 11.2 5.9 18 8.7 17 6.8 20.3 10.3 25.5 27.4 3.1 10.3 6 15 13.3 21.8 9.9 9.3 23.2 13 38.4 10.9 4.5-.6 9.1-1.4 10.2-1.7 1.8-.5 2.5.2 4.5 4.7 4.2 9.1 13.8 22.4 20.2 28.3 7.2 6.5 19.2 12.8 27.5 14.5 3.7.8 10.4 1.1 18.3.7 17.7-.7 24.3-2.8 59-18.5 24.1-10.9 31.9-12.8 39.3-9.7 15.6 6.5 30.7-8 23.8-23-2.3-5.1-4.2-6.8-11.5-10.1-8-3.6-21-4.4-32.1-1.9-9.9 2.2-16.5 4.7-37.1 14-23.8 10.8-32.2 13.6-42.5 14.2-9.7.6-14.7-.9-21.2-6.6-4.8-4.3-11.8-15.6-15.7-25.6-2.3-5.8-4.3-9.2-7.4-12.2-7.2-7-14.4-7.7-32.6-3.3-4.7 1.1-9.7 2-11.2 2-4.2 0-8.2-4.5-10.2-11.5-3.1-10.4-9.3-21.9-15.7-28.9-7.1-7.7-14.3-12.3-27-17.2-12.1-4.6-16.3-7.1-22.3-13.3-4.8-4.9-5.1-5-9.5-4.5-12.7 1.6-23.9 4-41 8.8-29.9 8.6-36.4 9-56.1 4.1-36.1-9-126.2-20.7-186.1-24.1l-11.7-.7-3.6-13c-7.9-28.3-16.8-39.6-31.1-39.7-3.1 0-6.6.8-9.2 2.1zm-479.9 1341c5.5 4.3 2.2 13.3-4.9 13.3-4.6 0-7.5-3.1-7.5-7.9 0-3.8 3.7-7.5 7.5-7.5 1.2 0 3.4.9 4.9 2.1zm-119.9 38.4c1.4 1.3 2.5 3.6 2.5 5 0 3.6-4.2 7.5-8 7.5s-8-3.9-8-7.5 4.2-7.5 8-7.5c1.9 0 4 .9 5.5 2.5zm162.5 1c112.7 17.3 194.9 115.9 190.7 229-1.2 33.1-8 60.7-22.2 90-10.7 22.1-23 39.6-40.7 58.1l-11 11.4h-26.6l-1.1-4.7c-1.5-5.8-6.1-10.2-18.1-17.3-7-4.2-9.6-6.4-13.8-12-2.9-3.8-5.2-7.2-5.2-7.6 0-.3 2.5-3.4 5.6-6.7 15.3-16.8 26-37.3 30.9-59.4 2.2-9.5 4-58.5 2.5-67.3-3.9-23.3-18-44.2-39.5-58.5-14.7-9.8-25.5-13.9-51.5-19.7-13.4-3-15.9-3.2-33-3.3-17.1 0-19.3.2-29.2 2.8-5.9 1.5-14 4.1-18 5.8-57.2 23.6-88.4 86.9-72.3 146.8 5.7 21 19.2 44.3 32.8 56.3l3 2.7-6.3 6.8c-3.5 3.7-8.6 8.1-11.5 9.6-7.2 3.9-16.2 11.2-18.6 15-1 1.8-2.2 4.9-2.5 6.9l-.7 3.8h-26l-9.1-9.3c-18.4-18.6-30.8-36.1-42.2-59.2-30.8-62.7-30.8-134.3 0-197 22.1-45 56.6-79.6 101.7-101.9 23.7-11.8 51.5-19.9 76.9-22.5 12.8-1.3 42-.5 55 1.4zm-250.5 88c3.3 3.2 3.3 7.4 0 10.5-7.4 7-17.5-3.1-10.5-10.5 3.1-3.3 7.3-3.3 10.5 0zm260.8 77.9c31.4 6 53.7 28.7 53.7 54.6-.1 14.3-4.8 24.8-16.5 36.5-6.5 6.6-9.8 9-17.5 12.8-14 6.9-22.7 8.9-38.5 8.9-10 0-14.8-.5-21-2.1-22.3-5.9-40.4-20.8-46.4-38.3-4.3-12.5-3.6-23.9 2.4-36.3 12.8-26.8 49.5-42.6 83.8-36.1zm-295.9 43.7c4.5 3.5 3.2 10.8-2.2 12.7-7.8 2.7-13.7-6.5-8-12.5 2.7-2.9 6.7-3 10.2-.2zM812 2337c.6 1 1 3.2 1 4.9 0 3.4-3.9 7.1-7.5 7.1-3.5 0-7.5-3.7-7.5-7 0-4.3 1-6.1 4.3-7.5 3.6-1.5 8.2-.3 9.7 2.5zm226.8 6.2c.3 1.7-2.2 1.8-41.2 1.8-34 0-41.6-.2-41.6-1.3 0-.8.3-1.7.7-2 .4-.4 18.9-.6 41.2-.5 37.7.3 40.6.4 40.9 2zm417.1 79.8c2 0 3.1 2.6 3.1 7.7 0 1.7.5 3.5 1 3.8.6.4 1 6.8 1 16 0 14.6.1 15.5 2.3 17.8 1.2 1.3 4.9 3.3 8.2 4.3 5.8 1.8 11.5 6 11.5 8.4 0 .6 1.9 3.1 4.3 5.5 2.3 2.4 4.9 5.5 5.7 7.1 1.5 2.7 2.3 3.3 7.3 5.3 2 .8 2.7 1.8 2.7 3.6 0 2.8 1.6 6.6 3.4 7.7.6.4 2.5.8 4.1.8 1.7.1 4.8.8 7 1.6 3.2 1.2 12 1.6 43 2.1 21.5.4 40.9.6 43.3.5 7.6-.4 17.5-.4 31.6 0l14 .3.8 3c.9 3.7 3.3 5.5 6.9 5.5 3 0 6.9-4 6.9-7 0-2.2 2.5-4.3 8.2-6.8 5.2-2.3 6.8-4.5 6.8-9.6 0-2.6.7-4 2.7-5.6l2.6-2.1 2.9 3.6c3.2 3.8 7.5 4.7 9.8 2 1.1-1.3 1.6-1.2 3.7 1.1 1.7 1.9 3.2 2.5 5.6 2.3 1.7-.2 4.3.4 5.7 1.3 2.9 1.9 8 3.5 13.2 4.3 2.4.4 4.8 1.7 6.7 3.7l2.9 3.1 21.8.3c12.1.2 28 .7 35.4 1 7.4.3 19.6.7 27 .9 7.4.1 14.7.6 16.2 1 1.7.4 4.3.1 7-.8 5-1.8 14.6-2.8 15.4-1.6.7 1.2 5.1 1.1 7.5-.1 2.4-1.3 8.9-15 9-19.3l.2-3.2.4 3c.6 3.8 3 6.5 5.8 6.5 1.1 0 2.6.5 3.2 1.1.6.6 2.3.9 3.9.7 3.2-.3 7.4-5.7 7.4-9.4 0-3 3.2-3.2 6-.4 2.3 2.3 5.8 2.6 8.5.6 1.6-1.1 2.3-1.1 4-.1 1.1.7 4.1 1.6 6.8 2 3 .4 4.7 1.1 4.7 2 0 2.5 5.1 5.5 9.4 5.5 2.3 0 4.6-.4 5.1-.9.6-.6 2.8-.5 5.7.1 3.4.8 5.5.8 7.1.1 1.7-.8 2.8-.7 4.2.3 1 .8 3.4 1.4 5.2 1.4 1.8 0 3.3.4 3.3 1 0 2.5 13.9 3.9 18.5 1.8 2.2-1 3.2-.9 6 .6 3.4 1.8 14.8 3.2 35 4.2 5.5.2 12 1.1 14.5 1.8 4.9 1.5 11 1.9 33.2 1.9 18.6 0 28.5-1.6 33-5.3l3.3-2.8.3-42.8c.2-23.6.8-43.3 1.3-43.8.5-.6 1.8-.1 3.2 1.2 1.3 1.2 3.1 2.2 4 2.2 1.5 0 1.7 1.5 1.7 13.9 0 12.5.2 14.1 2.1 16.5 2.3 3 6.9 3.5 8.9 1.1 1.2-1.4 1.5-1.4 3 0 1.4 1.3 1.8 3.8 2.2 12.5.5 11.9 1.8 15 6.5 15 1.2 0 3.2.9 4.3 2 1.4 1.4 3.3 2 6.3 2 7.2 0 12.6.5 13.3 1.3.4.4 1.5.7 2.5.7 3 0 6.6 2.1 7.7 4.5.7 1.4 2.9 2.9 5.9 4 2.6.9 5.5 2.1 6.3 2.6 12.3 7.4 23.3 10.7 43.3 12.8 4.7.5 8.5 1.5 9.6 2.5 2.1 1.9 4.3 2 9.6.3 3-1 7.3-1.1 16.5-.5 16.1 1 34.7.9 48.2-.2 17.6-1.5 24.8-5.9 28.3-17.6 1-3.3 2.6-6.8 3.6-7.9 1-1.1 2-3.1 2.2-4.5 1.4-7.2 1.9-8 4.7-8 4.2 0 6 2.9 6.7 10.9.7 8.5 2.4 10.7 7.5 9.7 4.5-.9 11.4-1.5 16.9-1.5 2.9 0 5.1-.6 5.9-1.6 1.7-2.1 4.3-1.9 6.5.5 1 1.1 2.4 2 3.1 2 .7 0 1.6.9 1.9 2 .9 2.8 4.2 4.3 8 3.6 2.2-.5 3.6-.2 4.5.9.7.8 2.6 1.5 4.3 1.5 2 0 4.2 1.1 6.8 3.5 3.4 3.1 4.5 3.5 9.2 3.5 3 0 7.8.5 10.8 1 3 .6 16 1.5 28.9 2 12.9.6 28.2 1.2 34 1.5 5.8.2 12.2.7 14.2 1.1 6.7 1.1 8.6 0 11.9-6.9 2.4-5.1 2.9-7.5 2.9-13.5 0-4.1.4-7.2 1-7.2s1 .7 1 1.6c0 1.7 2.6 6.8 4.9 9.6 1.9 2.4 6.6 2.3 8.9-.2 2.1-2.3 4.2-8.4 4.2-12.4 0-2.1.5-2.6 2.4-2.6 3.3 0 6.6-4.4 6.6-8.7 0-5.6 1.7-2.8 3.1 5 1 6.3 1.6 7.6 5 10.7 9.7 8.9 11.4 9.4 18.6 5.4 3.1-1.7 4.9-2.2 5.6-1.5.6.6 4.8.8 11 .4 8.5-.5 10.2-.4 11.2 1 .6.9 2.4 2.1 3.8 2.6 1.5.6 2.7 1.7 2.7 2.6 0 2.7 4.6 4.8 9.5 4.3 2.9-.4 5.1-.1 6.2.8 1 .7 2.6 1.4 3.6 1.4 1.1 0 3.3.6 5 1.4 5.5 2.5 12.8 3.3 22 2.5 1.2-.1 9.5.2 18.5.6 11 .5 16.2 1.2 16.2 1.9s-2.4 9-5.4 18.6c-7.1 22.7-8.5 28.5-9.7 38.8-1.5 13.3 1 29.7 6.8 44.9.7 1.8-18.8 1.7-34.7-.1-6.3-.7-11.8-1-12.2-.7-.4.4-.8 7-.9 14.6-.2 11.9.1 14.9 1.8 19.7 2.4 6.4 6.4 12.7 13.7 21.2l5 5.9-2.9 2.3c-4.3 3.5-31.3 16.7-42.6 20.8-21.4 7.8-37.3 11.5-53.8 12.3l-11.4.6-3.3 7.4c-9.8 21.4-5.1 40.7 16.3 67.5 2.9 3.7 5.3 7.1 5.3 7.5 0 .4-2.6 2.1-5.8 3.8-22.2 11.6-45.1 37.5-59.6 67.7-5.9 12.3-6.2 12.7-9.3 12.8-5.5 0-26.8 3.9-32.8 6-18.5 6.4-34.9 19.5-48.2 38.5l-3.8 5.4-10.1 2.5c-20 5-32 10.4-41.5 18.4-3.6 3.1-4.2 3.3-7.1 2.3-1.7-.6-5.8-1.1-9.2-1.1-8.6 0-16 3.8-26.1 13.1-11 10.2-15.6 14.1-16.2 13.6-.2-.3.3-2.1 1.1-4.1 1.4-3.3 1.4-3.6-.2-3.6-1 0-18.6 3.4-39.2 7.5s-38.2 7.5-39.1 7.5c-1.2 0-2-1.5-2.9-5.3-4.3-18.1-16.7-28.3-30.6-24.8-8.2 2.1-13.4 6-32 24.3-9.9 9.8-18.5 17.8-19.2 17.8-.6 0-2.4-1.1-4-2.5-5.2-4.3-11.1-6.5-18.2-6.5-12.3 0-19.2 6.1-32.7 28.8-3.7 6.2-7.1 11.6-7.5 11.8-.4.3-4.9-2-10-5-11.9-7.2-23.9-11.5-33.7-12.3-6.6-.5-9.1-.1-18.4 2.6-18 5.1-26.7 6.4-40.2 5.8-9.8-.4-13.7-1-21.5-3.6-13.8-4.4-19.4-8-44.5-27.7-10.3-8.1-16.2-10.7-24.3-10.7-5.6-.1-7.6.4-12.1 2.8-3.2 1.8-6.7 4.8-8.6 7.4l-3.2 4.4-9.4.2c-8.3.1-10.4.5-18.4 3.8l-9 3.6-1.5-2.2c-3.2-4.8-11.7-13-15.3-14.8-5.9-3.1-12.3-3.9-20.7-2.8-8.6 1.2-14.9 3.7-21.7 8.5l-4.7 3.3-3.3-4.9c-10.4-15.5-28.5-26.9-56.8-36-19.9-6.3-25.7-8.5-25.8-9.5-.1-1.1 0-1.2 16.4-9.1 12.8-6.1 21.7-13 24.9-19.5 3.1-6 5-15.6 5-25.4 0-7 .4-9.7 1.9-12.1 1-1.7 6.7-6.3 12.7-10.4 28.7-19.4 39.4-32.3 42.5-51.3.7-4.4.6-9-.6-18.1l-1.6-12.2 5-12.7c7.3-18.5 9.5-28 9.4-40.7 0-13.8-1.9-20.5-14.4-53.2-15.3-39.9-24.3-61.6-33.5-80.6-11.9-24.5-16.1-28.2-32.1-28.2-13.8 0-22.6 6.9-35 27.3-7.6 12.3-15.8 21.9-21.2 24.6-6.6 3.4-14.2 4.6-27.6 4.6-14-.1-20.7-1-38.5-5.5-25.2-6.3-49.7-15.9-96.5-37.7-41.8-19.5-44-20.3-60.5-21.4-29.9-2-64.5-7.8-83.7-14-6.8-2.2-5.7-.7-11.4-16.2-1.9-5.3-2.3-5.7-3.7-4.4-14.5 12.4-18.1 14.3-31.4 16.2l-4.8.7v-38.3l2.8 1.9c3.2 2.3 7.9 3.2 18.2 3.6 4.1.2 11.3 1 16 1.8 6.4 1 15.5 1.3 36.5 1 33.8-.5 37.2-.4 50 .1 5.5.2 10.8 0 11.7-.4 2.8-1.5 4.6-10.6 5.2-26.9.3-8.5 1.2-22 2-30s1.8-20.2 2.1-27.2c.7-12.4.7-12.6 2.6-10.7 1 1 2.7 1.9 3.8 1.9z"/><path d="M1061.1 2171.6c-26.2 7-42.8 33.2-37 58.3 3.7 16.4 17.7 29.9 35.5 34.6 34.5 9 69.9-20.9 64.6-54.7-2.8-18.4-16.6-33.4-35.3-38.3-6.9-1.9-20.8-1.8-27.8.1zm17.7 53.2c1.2 5.3 2.2 10.2 2.2 10.8 0 .7-4.2 2.2-9.2 3.4-5.1 1.2-10 2.4-10.9 2.6-1.3.4-2-1.3-3.7-8.8-1.2-5.1-2.2-10.2-2.4-11.3-.3-1.7.9-2.2 8.7-4.1 13.9-3.4 12.8-3.9 15.3 7.4zM2175.3 2631.2c-1.3.6-2.5 1.9-2.8 2.9-.5 1.5-1.4 1.7-5.4 1.2-4.1-.5-5.2-.2-7 1.6-2.6 2.6-2.8 8.6-.4 11.3 1.5 1.7 1.5 1.8-.5 1.8-3.4 0-5.2 1.1-6.8 4.2-2 3.8-1 8.2 2.4 10.7 2.5 1.9 2.6 2 .6 2.1-3.9 0-7.4 3.7-7.4 7.9 0 4.4 2 6.5 12.4 13.4l6.9 4.5-7.9 4c-4.4 2.2-9.6 4.7-11.7 5.5l-3.8 1.6.7-11.3c.7-11.3.7-11.4-1.9-14-1.4-1.4-3.5-2.6-4.6-2.6-3.1 0-6.8 2-7.9 4.4-.9 1.8-1.1 1.5-1.1-2.2-.1-7.4-7.2-11.8-12.6-7.8-1.8 1.3-2 1.1-3-1.7-2.5-7.7-13.5-6.9-15.1 1.2-.5 2.4-.9 2.6-4.3 2.3-3.2-.3-4.2.1-6 2.3-2.3 3-2.7 6.5-1.1 9.5.8 1.5.5 2.4-1.5 4.4-5.3 5.3-1.2 14.3 6 13.4 2.9-.3 3.2-.2 2.4 1.3-2.9 5.4 1.6 12.5 7.4 11.7 1.8-.3 4-.9 5.1-1.3 1.6-.7 1.7-.6.7 1.3-.6 1.1-1.1 3-1.1 4.2 0 2.7 5.2 8 7.7 8 1.1 0 6.1-2 11.1-4.5l9.2-4.4-.1 6.2c-.1 3.4-.4 8.8-.8 11.9l-.6 5.8-8.8-6c-4.8-3.3-9.8-6-11.1-6-1.3 0-3.6 1-5.1 2.1-2.3 1.9-2.6 2.8-2.3 6.5.3 4.8.2 5-2.6 2.9-3-2.3-7.4-1.8-10.3 1.1-2.1 2.1-2.5 3.2-2 6.4.5 3.7.4 3.8-1.9 3-3-1.2-6.7.1-8.8 3.2-2.2 3.2-2 6.2.8 9.4l2.3 2.8-2.5 2.1c-1.9 1.7-2.6 3.2-2.6 6 0 4.8 3.1 7.5 8.5 7.5 3.3 0 3.9.3 3.9 2 0 3.2 4.4 7 8 7 3.3 0 8-3.8 8-6.5 0-1.2.4-1.1 2 .5 2.3 2.3 7.7 2.7 10.3.7 1-.7 2.4-3.2 3.2-5.7.7-2.5 1.4-3.8 1.4-2.9.1 2.8 3.5 4.9 7.8 4.9 5.7 0 7.3-2.2 7.9-11.1.3-4.1.7-8.9 1-10.6l.5-3.3 9.9 6.8c5.5 3.7 9.9 6.9 10 7.2 0 .3-3.8 2.3-8.5 4.4-8.5 3.9-12.5 7.2-12.5 10.7 0 3.3 2.2 6.8 5.2 8l3 1.2-2.5 1.3c-3 1.6-5 6.3-4.1 9.8.7 2.9 3.9 5.6 6.6 5.6 1.7 0 1.6.2-.2 2-2.9 2.9-3.4 6.3-1.6 9.9 1.8 3.4 5.1 4.7 9.6 3.7 2.6-.5 3-.3 3 1.7 0 7.9 10.6 10 14.7 2.9 1.5-2.6 2.1-2.9 5.7-2.5 3.2.4 4.6 0 6.4-1.7 2.7-2.5 3-8.5.5-11.2-1.5-1.7-1.5-1.8.1-1.8 2.9 0 6.6-4.6 6.6-8.1 0-2.3-.9-4-3.4-6.3l-3.3-3.2 2.6.4c4.2.6 8.1-3.1 8.1-7.7 0-4.7-.9-5.8-10.2-12-4.3-2.8-7.8-5.4-7.8-5.6 0-.5 21.6-11.5 22.5-11.5.3 0 .3 1.7 0 3.7-.2 2.1-.7 7.3-1 11.6-.6 7.3-.4 7.8 1.9 10.2 3.2 3.2 8.7 3.4 11.6.5l2-2v3.5c0 7.2 7.7 10.9 13.4 6.4l2.6-2v2c0 6 10 8.5 13.9 3.5 1.2-1.5 2.1-3.6 2.1-4.7 0-1.6.3-1.8 1.2-.9.7.7 2.7 1.2 4.5 1.2 6.9 0 10.7-7.8 6.4-13.1-1.8-2.3-1.8-2.3.5-4.2 5.5-4.3 1.1-14.3-6-13.5-2.9.3-3.2.1-2.8-1.9.8-4.1-.7-7.3-4.1-8.9-3-1.4-3.7-1.4-7 0l-3.7 1.5 1.6-3.1c1.8-3.6 1.2-6.9-1.8-9.8-3.1-2.9-5.4-2.5-16.1 2.4-5.2 2.5-9.8 4.2-10.1 3.8-.7-.6.1-18.8 1-23 .2-1.2.8-2.2 1.3-2.2s4.7 2.6 9.2 5.7c9 6.2 13.2 7.2 16.9 3.8 2.2-2 2.7-7.3.9-10.7-1.1-2.1-1.1-2.1 1.9 0 3.2 2.3 7.2 2.8 10.1 1.2 2.2-1.1 4.5-6.4 3.8-8.4-.4-1.1.3-1.3 3.4-.9 3.2.5 4.4.1 6.4-1.7 3.1-2.9 3.3-7.7.4-11.4-1.9-2.4-1.9-2.7-.5-4.8 1.7-2.3 2-5.5 1-8.3-.8-1.9-5.5-4.5-8.4-4.5-1.4 0-2-.6-2-2.3 0-3.3-4-6.7-7.9-6.7-3.1 0-8.1 3.6-8.1 5.9 0 .6-1.1-.1-2.5-1.4-5-5.1-13.5-1.7-13.5 5.3 0 3.7-.1 3.7-1.8 1.6-4-5-8.2-5.5-12.1-1.6-2.6 2.6-2.9 3.6-3.6 13.5-.4 6.7-1.1 10.7-1.8 10.7-1.8 0-20.7-13.2-20.1-14.1.2-.4 4.7-2.8 9.8-5.2 9.6-4.6 11.6-6.5 11.6-11.2 0-3.4-4.2-7.5-7.7-7.5-2.6-.1-2.6-.1-.8-1.2 4.4-2.4 6.5-5.2 6.5-8.5 0-3.2-2.3-6.6-5.1-7.5-1-.3-.8-1.1.9-3.3 2.8-3.5 2.8-6.5 0-10-1.9-2.5-2.6-2.7-7-2.3-3.7.4-4.8.2-4.8-.9 0-2.2-4.7-6.3-7.2-6.2-1.3 0-3.3.5-4.5 1.1zm6.6 5.2c.7.9.9 2.9.5 5.5l-.7 4.2 5.7-2.8c5.2-2.5 5.7-2.6 7.2-1.1 2.5 2.5 1.1 4.4-5.8 7.9-3.5 1.7-6.6 3.7-7 4.3-.8 1.2-1.1 8.6-.3 8.6.2 0 3.3-1.4 6.9-3.2 6.9-3.4 9.6-3.2 9.6.5 0 1.9-1.5 3-9 6.7l-9 4.4v5.3c0 2.9.2 5.3.4 5.3.3 0 4.2-1.8 8.7-4 8.6-4.1 10.9-4.1 10.9.1 0 1.4-2.7 3.3-10.5 7.1-10.4 5.2-10.5 5.3-10.5 8.8 0 3.4.4 3.9 12.1 11.9 11.5 7.8 12.3 8.2 15 7.1 1.6-.7 2.9-1.5 2.9-1.9.1-4.9 2.1-23.4 2.5-24.1 1-1.6 4.4-1.1 5.3.7.4 1 .6 5.7.3 10.6-.3 4.8-.2 8.7.2 8.7s2.5-.9 4.7-2l3.8-2 .7-7.7c.3-4.3.7-8.9.8-10.2.2-2.9 2.8-4.7 5.2-3.7 1.6.6 1.7 1.6 1.3 9.1-.3 4.7-.5 8.5-.3 8.5.1 0 2.3-.9 4.7-2l4.5-2 .5-7c.7-8.9 2.8-11.9 6.1-8.6 1 1 1.3 2.9.9 6.5-.2 2.8-.2 5.1.1 5.1.4 0 2.2-.7 4.1-1.6 7.1-3.4 9.3 2.3 2.4 6.1l-3.7 2.1 4.9 3.7c4.3 3.2 4.9 4 4 5.7-1.7 3.2-2.5 3.1-9.5-1.4l-6.9-4.4-4.2 2.1-4.3 2 6.2 4.4c4.4 3.1 6.2 5 6.2 6.6 0 4-3.8 3.2-12.1-2.4l-7.7-5.2-5 2.5-5 2.4 7.9 5.5c8.1 5.6 9.6 8.1 6.2 10.3-1.4.8-3.5-.2-11.5-5.6-9.7-6.6-9.7-6.6-12.9-5.1l-3.2 1.6-.6 11.6c-.4 6.4-1 13-1.2 14.7-.5 2.7-.1 3.5 2.6 5.4l3.2 2.3 9.7-4.8c10.2-5 13.4-5.4 13.9-1.8.3 1.9-1 2.9-8.4 6.6l-8.7 4.4 4.6 3.2 4.6 3.2 8-4.1c9-4.5 10.6-4.8 11.9-2.3 1.5 2.9.3 4.3-6.4 7.4-3.5 1.5-6.4 3-6.4 3.2 0 .3 1.8 1.6 4 3.1l4 2.6 6.5-3.2c5.2-2.6 6.9-3 8.3-2.2 3.3 2.1 2 4-6.3 8.9-1.5.9-1.3 1.4 2.4 3.8 4.3 2.9 5.2 5.5 2.6 7.7-1.2 1-2.3.7-6.2-1.9l-4.8-3.1-.8 5.2c-.7 4.8-2.1 7.8-3.6 7.8-2.8-.1-3.5-2.2-3.2-9.9l.2-7.9-3.7-2.6c-2.1-1.4-4.1-2.3-4.6-2-.4.3-.8 3.2-.8 6.4 0 7.9-1.3 11.2-4.3 10.8-2.1-.3-2.2-.6-2-11.8l.1-11.6-4.1-2.7-4.2-2.6-.8 8.2c-.5 4.5-1 9.2-1.3 10.3-.5 2.7-3.2 3.8-5.1 2.2-1.2-1-1.3-3.3-.7-13 .7-12.4.1-14.8-3.6-14.8-1 0-7.7 2.9-14.9 6.5-12.8 6.3-13.1 6.5-13.1 9.7 0 3 .7 3.8 9.1 9.2 9.7 6.4 10.9 7.7 8.9 10.1-1.9 2.3-3.3 1.9-10.7-3.1-3.7-2.5-7.1-4.8-7.5-5-.5-.3-.8 2.1-.8 5.4v5.8l7.3 5c5.7 3.9 7.2 5.4 7.2 7.4 0 3.8-3 3.6-9.2-.5-3-2-5.6-3.5-5.8-3.3-.1.2-.5 2.2-.9 4.4-.6 4.1-.5 4.2 4.3 7.3 6.1 3.9 8.3 6.4 7.5 8.4-1 2.7-3.1 2.6-7.7-.3l-4.6-2.9-.8 5.1c-.9 5.8-3.1 8-5.8 5.8-1.4-1.1-1.6-2.4-1-6.7.3-2.9.4-5.3 0-5.3-.3 0-2.4.9-4.6 2.1-5.1 2.6-8.4 2.2-8.4-.9 0-1.9 1.4-3.1 7-6l7-3.7.3-5.3.3-5.3-7.1 3.6c-7.9 4-11.3 4.2-11.8.8-.3-1.9 1.1-2.9 9.7-7.3l10.1-5v-5c0-2.8-.2-5-.5-5s-4.2 1.9-8.9 4.2c-8.9 4.4-12 4.5-11.4.6.2-1.8 2.7-3.5 11-7.8 8.7-4.4 10.8-5.9 10.8-7.7 0-1.6-3-4.2-12.7-10.9-11.1-7.6-13-8.6-15.2-7.8-2.5.9-2.6 1.4-3.6 12.3-.8 8.8-1.4 11.6-2.7 12.4-1.2.8-2.1.7-3.3-.3-1.4-1.2-1.6-2.6-1-10.3l.7-8.9-2.3.7c-7.3 2.3-7.6 2.7-8.4 13-.5 7.6-1 9.7-2.5 10.5-1.2.6-2.3.5-3.5-.4-1.6-1.1-1.7-2.2-1.1-8.4.4-4 .5-7.2.1-7.2-.3 0-2.4.9-4.5 2-3.9 2-4 2.2-4.1 7.3-.1 6.9-1.1 10.1-3.2 10.5-3.3.7-4.4-1.4-3.9-7 .4-4.1.2-5-.9-4.6-.8.4-3 1.3-5 2.2-3 1.2-3.9 1.3-5.4.2-2.8-2-1-5.2 4-7.2 2.5-.9 4.5-1.9 4.5-2.3-.1-.3-2.1-2.1-4.5-3.9-4.8-3.5-5.8-6.6-2.5-7.7 1.3-.4 3.8.7 7.9 3.4 3.3 2.3 6.5 4.1 7.1 4.1.6 0 2.9-.9 5.1-2.1l4-2-2.3-1.8c-1.3-1-4.5-3.2-7.1-5-3.6-2.5-4.7-3.8-4.5-5.4.5-3.9 4.1-3.1 12.8 2.9l8.2 5.7 5-2.4 5-2.5-8.6-5.7c-8.5-5.7-9.7-7.2-7.4-9.5 2-2 3.6-1.4 13.4 5.4 6.5 4.5 10 6.4 11.3 5.9 2-.6 2.5-3.4 3.7-22.6.6-10.2.6-10.7-1.4-11.8-1.8-1-3.7-.4-12.2 3.9-5.5 2.7-10.6 5-11.4 5-1.9 0-3.1-3.7-1.8-5.3.6-.7 4.7-3 9.1-5.2l8.1-3.9-4.6-3-4.6-2.9-8.7 4.2c-9.3 4.6-12.4 4.9-12.9 1.4-.3-1.9.9-2.8 7.2-6 4.2-2.1 7.6-4 7.6-4.3 0-.3-1.9-1.7-4.2-3.2l-4.2-2.6-5.9 2.9c-7 3.6-10.2 3.5-10.2-.1 0-2 1-3 4.8-4.9l4.8-2.4-3.6-2.4c-3.5-2.4-4.4-5-2.4-7 1.3-1.3 3.2-.8 7 1.8l2.6 1.9.7-6.1c.7-6.3 2.4-8.2 5.5-6.2 1.3.8 1.5 2.5 1.3 9.1l-.4 8 3.9 2.6 3.8 2.6.6-7.4c.4-4 1-7.9 1.3-8.5.9-1.4 4.3-1.4 5.2.1.8 1.2.7 12.5-.2 17.3-.4 2.7 0 3.3 3.9 5.7 2.4 1.6 4.7 2.8 5.1 2.8.3 0 .6-2.6.7-5.8.1-9.4 1.1-13.7 3.5-14 3.8-.5 4.3 1.5 3.4 13.3-1.4 16.5-.3 17 18.3 7.9 12.7-6.1 13.7-6.8 13.7-9.4 0-2.4-1.3-3.6-9.4-9-9.8-6.4-11.4-8.3-9.5-10.6 1.8-2.2 3.6-1.7 11.4 3.6 4.1 2.7 7.7 5 8 5 .3 0 .5-2.4.5-5.3v-5.4l-8.6-5.7c-6.9-4.6-8.5-6.1-8.2-7.9.5-3.8 4.2-3.2 11.3 1.7l6.5 4.5v-3.9c0-2.1.2-4.5.6-5.3.3-.9-1.2-2.5-4.4-4.6-6.2-3.9-8.4-6.4-7.6-8.4 1-2.7 3.1-2.6 7.7.3l4.5 2.9.7-4.2c.4-2.3.9-4.5 1.2-5 .7-1.2 4-.8 5.2.7zM751.8 820.6c-13.9 15.8-25.3 29.2-25.3 29.9 0 .7 6.5 7 14.5 14s15.5 13.6 16.6 14.7l2.1 1.9 25.7-29c14.1-16 25.6-29.2 25.6-29.5 0-.2-7.6-7.2-17-15.5L777.1 792l-25.3 28.6zM482.7 859.6c-16.2 2.9-32.7 12.1-45.6 25.3-11.6 11.8-20.8 25.1-41.8 59.8-16.8 27.9-18.9 31.9-17.5 32.9 5.1 3.4 307.4 183.5 307.6 183.2.2-.1 11-18.3 24.1-40.3 38.2-64.1 45.4-81.2 45.5-107.6 0-35.3-15.3-65.6-42.7-84-10.5-7.1-24.2-13.4-34.9-16.1-11.8-2.9-31.3-3.1-42.9-.4-9.6 2.1-24.9 9.1-32.2 14.7-3.6 2.7-5.5 3.6-5.7 2.7-.3-.7-1.2-4-2.1-7.3-9.3-33.2-38.4-57.3-76.2-63-12-1.8-25.3-1.8-35.6.1zm32.7 51.4c19.3 6.6 35.1 20.6 40.1 35.4 3 9.3 1.7 23-3.6 35.3-1.1 2.6-5 9.8-8.6 16-6.3 10.7-6.7 11.2-8.8 10-1.2-.7-21.4-12.7-44.8-26.6L447 955.6l2.7-4.5c21.4-37.1 40.6-48.8 65.7-40.1zm143.2 52.1c3.2.6 9.7 2.8 14.2 5 18 8.7 29.2 26.1 29.2 45.5 0 7.3-2.7 18.5-7 28.8-2.9 6.9-22.6 41.4-25.4 44.3-.8.9-12-5.3-47.1-26.3-25.3-15.1-46.1-27.7-46.3-27.8-.4-.5 16-27.6 22.2-36.6 2.8-4.1 8.9-11.4 13.6-16.1 9.5-9.5 17.1-14 28-16.3 8.1-1.8 11.1-1.9 18.6-.5zM1447 1054l-4.1 4.1-2.5-2c-8.8-7-20.9-.3-20.2 11.2.3 4.6.2 4.7-2.5 4.7-6.3 0-11.7 5.8-11.7 12.5 0 6.5 3.8 11.3 10.3 12.9l2.9.7-2.7 2.1c-2.9 2.3-5.5 7.4-5.5 10.9 0 6.7 7.3 12.9 15.2 12.9h3.6l-3.9 3.9c-3.3 3.3-3.9 4.5-3.9 8.2 0 4.9 2.6 10.1 6.2 12.1 1.6.9 8 1.5 20 1.8l17.7.5-9.8 17c-5.4 9.3-10.3 17.1-10.8 17.2-.5.2-4.6-6.2-9.2-14.2-9.1-16-10.7-17.5-18.7-17.5-3.9 0-5.1.5-7.9 3.3-4.1 4.1-5.2 9-3.1 14 2.3 5.5 1.2 4.5-2.9-2.8-4-7.2-7.2-9.5-13.2-9.5-6.4 0-10.5 3.3-12.7 10.2-.4 1.5-.9 1.3-3.5-1.1-4.2-3.9-9-4.7-14.4-2.3-3.1 1.4-4.8 3-6 5.5-2.1 4.3-2.1 6.7-.2 11.4.8 2 1.4 3.7 1.3 3.8-.2.1-1.8.8-3.7 1.5-4.5 1.8-7.1 6.3-7.1 12.4 0 4.1.5 5.3 3.4 8.2 1.9 1.9 4.4 3.4 5.6 3.4 1.7 0 2 .4 1.4 1.7-.4 1-.9 3.9-1.2 6.6-.5 5.5 1.2 8.8 6.1 11.7 5.6 3.4 12.2 2 16.6-3.6l2.1-2.7v3.8c0 7.2 5.4 12.5 12.7 12.5 5.1 0 9.8-3 12.5-8.2l2.2-4.3.6 4.5c1 7.8 5.5 12 12.7 12 6.6 0 9.1-2.5 17.8-17.8 4.4-7.8 8.3-13.8 8.6-13.4.9.9 18.9 32.2 18.9 32.8 0 .2-7.5.4-16.7.4-18.6 0-20.4.5-24 5.9-4.9 7.3-1.2 17.2 7.2 19.4 1.1.2-.8.5-4.3.6-9.7.2-14.3 3.5-15.7 11.2-.7 4.4 1.9 9.6 6.4 12.6l3.4 2.3h-2.9c-6.4 0-12.4 6.4-12.4 13.2 0 6.7 6.4 12.8 13.4 12.8 2.5 0 2.5 0 1 3.7-5.5 13 11 23.8 21 13.8 3.1-3.1 3.3-3.1 4.5-1.3 1.7 2.7 7.2 5.8 10.4 5.8 9 0 14.8-8.1 12.4-17.2-.7-2.8-.7-2.8 3.6-2.2 5.4.8 10-1.4 12.7-5.9 2.9-4.7 2.5-9.1-1.6-16.6-2.7-5-3-5.9-1.2-3.9 3.1 3.5 5.9 4.8 10.3 4.8 7.6 0 12.5-5.1 12.5-13 0-3.3-1.5-6.6-7.5-16.9-4.1-7-7.5-13.3-7.5-13.9 0-.9 5.2-1.2 19.5-1.2 10.8 0 19.5.4 19.5.9s-3.6 7.1-8 14.7c-6.2 10.7-8 14.7-8 17.7 0 5 2.3 9.3 6 11.2 3.8 2 11 1.9 13.8-.1l2.3-1.6-2.5 5.1c-1.4 2.8-2.6 6.4-2.6 8.1 0 9 9.2 15 17.5 11.6 4.7-2 4.8-2 3.5.3-1.5 2.9-1.2 8.9.6 12.1 2.4 3.9 6.5 6 12 6 4.2 0 5.1-.4 8.6-4.1 3.7-3.9 4-4 5.3-2.3.8 1.1 1.5 2.2 1.5 2.5 0 .9 6.9 3.9 9.1 3.9 3.8 0 8.9-2.9 10.9-6.2 2.2-3.6 2.6-9.8 1-12.9-.9-1.5-.7-1.9.7-1.9 1 0 3.7-.9 5.9-1.9 3.4-1.5 4.5-2.8 6-6.6 1.6-4.3 1.6-5.1.3-8.8-1.6-4.6-6.6-8.7-10.7-8.7h-2.5l2-2.3c4.7-5.2 5.6-11 2.4-16.3-3.1-5.1-7.2-6.4-21.8-6.6l-12.8-.2 9.5-.5c5.2-.3 10.5-1.2 11.7-1.9 3.3-1.8 5.3-6.4 5.3-11.8 0-3.9-.5-5.1-3.4-8l-3.4-3.4h-17.5c-9.7 0-17.8-.4-18.1-.8-.3-.5 4.1-8.8 9.7-18.5 8.7-15.2 10.4-17.5 11.4-16 .7.9 4.7 7.6 8.9 15 8.2 14.5 11 17.3 17.4 17.3 1.9 0 4.6-.6 6-1.3 3.6-1.8 7-7.4 7-11.5v-3.6l2.9 4.6c3.9 6.1 6.6 7.8 12.2 7.8 7 0 12.9-5.7 12.9-12.6v-2.7l2.5 2.7c4.5 4.9 10.8 5.9 16.2 2.6 5.8-3.5 8-11.3 4.8-17.4-.8-1.5-1.5-3-1.5-3.2 0-.2 1.8-.4 4.1-.4 3.3 0 4.7-.6 7.5-3.4 2.9-2.9 3.4-4.1 3.4-8 0-8.1-4.7-13.6-11.6-13.6-2.1 0-2.5-.3-1.8-1.8.4-.9.9-4 1.2-6.8.3-4.3 0-5.5-2.3-8.2-5.4-6.4-14.6-6.4-20-.1-2.3 2.8-2.5 2.9-2.5.9 0-6-5.7-11-12.7-11-5.9 0-9.6 2.9-14.3 11.4-4.3 7.9-6.5 10.6-3 3.6 5.3-10.4-.1-20-11.3-20-6.1 0-8.7 2.6-17.6 18.2-4 7-7.7 13-8.2 13.4-.5.3-1.6.1-2.3-.5-2.5-2.1-19.8-33.2-19.2-34.7.4-1.1 3.6-1.4 17.2-1.4 18.4 0 21.7-.8 24.7-5.9 2.4-4.1 2.2-11.2-.4-14.5-3.3-4.2-5.8-5.1-16.4-5.7-9.5-.5-9.2-.5 5.4-.7l15.3-.2 3.3-3.3c1.9-1.9 3.7-4.6 4.1-6 .9-4-.3-9.1-3-12l-2.3-2.5 3.8-1.1c4.3-1.3 8.4-5.7 9.4-9.9 1.5-7.2-4.9-15.2-12.3-15.2-3.4 0-3.4 0-2.8-3.6 1-5-2.4-11.7-6.8-13.8-4.8-2.3-8.7-2-12.9.8l-3.6 2.5-3.4-3.4c-4.3-4.3-7.9-5.2-13.1-3.4-7 2.4-10.9 11.8-7.5 18 1 2 .9 2-2 .5-6.2-3.3-12.9-1.5-16.8 4.3-3 4.4-2.9 9.5.2 15 3 5.2 3.1 6 .6 3.7-2.8-2.6-9.1-3.1-12.8-1.2-5 2.5-7.3 6.2-7.3 11.5.1 3.9 1.3 6.7 8.5 19 4.6 8 8.1 14.9 7.9 15.3-.7 1.1-40.1 1-40.8 0-.3-.5 3.3-7.4 8-15.5 9.4-16.3 10.2-19.7 6.1-25.8-2.7-4-8.9-6.6-13.2-5.5-1.6.4-4.7 2.6-6.8 4.8l-3.9 4.1 4.1-7.5c4.6-8.3 5-11.8 2.1-16.5-3.1-5.1-6.2-6.6-12.5-6.1-4.9.4-5.3.3-4.4-1.3 1.4-2.7 1.1-8.6-.6-11.9-2-3.9-6.3-6-12-6-3.9 0-5 .5-8.5 4zm12.9 4.6c3.2 2.3 2.5 4.8-4.4 16.6l-5.7 9.7 3.7 6.3c2 3.5 3.8 6.4 4 6.6.2.2 3.1-4.4 6.5-10.2 6.5-11.1 8.7-12.9 12.9-10.6 3.7 1.9 2.6 6-5.3 19.6l-7.5 12.8 3.1 5.6c4.9 8.5 5.2 9 6.1 8.7.4-.1 4.1-5.8 8-12.7 6.3-10.8 7.7-12.5 10.1-12.8 3.8-.5 6.9 2.4 6.1 5.7-.4 1.4-4.4 9-9.1 16.9-4.6 7.9-8.4 14.9-8.4 15.4s1.2 2.9 2.6 5.4l2.6 4.4 24.2-.2 24.1-.3 2.4-4.6 2.5-4.6-9.4-16.3c-8-13.9-9.2-16.6-8.4-18.8 1-2.9 4-4.3 6.9-3.2 1.2.4 5.2 6.3 9.5 13.8 4.1 7.2 7.7 13.1 8 13.1.3.1 2.3-3.2 4.6-7.2l4-7.3-6.4-11c-11.2-19.1-11.9-22.2-5.6-23.8 3.6-.9 5.3.8 11.9 12.5 3.1 5.4 5.9 10 6.3 10.3.4.2 2.5-2.9 4.8-6.9l4.1-7.2-5-8.4c-6.7-11.3-7.4-13.5-5.2-15.9 2.8-3.1 7.2-2.6 9.3.9.9 1.6 3 5.1 4.5 7.6l2.8 4.7 3.2-5.2c4.1-6.8 6.4-8.4 9.7-6.7 3.7 1.8 3.7 5.8.1 11.7-1.7 2.8-3.1 5.2-3.1 5.5 0 .3 3.9.5 8.7.5 9.6 0 12.3 1.3 12.3 6 0 4.5-1.4 5-15.1 5h-12.7l-3.6 6.4c-2 3.5-3.6 6.7-3.6 7 0 .3 5.6.6 12.5.6 12 0 12.5.1 14 2.4 2 3 .5 7.3-2.7 8.1-1.3.3-8.8.6-16.8.8l-14.4.2-4.2 7.2-4.3 7.2 15.5.3c14 .3 15.7.5 17 2.2 1.9 2.7 1.8 5.2-.6 7.6-1.9 1.9-3.3 2-20.4 2h-18.4l-2.7 4.6-2.7 4.6 11.9 20.6 11.9 20.7 6.1.3 6 .3 8.9-15.2c4.9-8.4 9.7-15.7 10.7-16.3 1.3-.8 2.4-.7 4.5.5 4.1 2.3 3.3 5.9-4.2 18.8-3.6 6.2-6.6 11.5-6.6 11.7 0 .2 4 .4 8.9.4h8.9l5.7-10.3c9.7-17.2 12-19.2 16.6-14.6 2.7 2.7 2.2 4.7-4.1 15.3-2.8 4.7-5 8.7-5 9.1 0 .3 3.5.5 7.7.3l7.7-.3 4.9-8.5c2.7-4.7 5.6-9.3 6.4-10.3 3.2-3.5 9.3-1.1 9.3 3.6-.1 1.2-1.9 5.1-4 8.7l-4 6.5 8.2.3c8.9.3 11.8 1.7 11.8 5.7 0 4.1-2.9 5.4-12.3 5.7l-8.7.3 3.9 6.5c5.2 8.6 5.8 11.1 3.2 13.4-1.1 1-3.1 1.6-4.7 1.4-2.5-.3-3.7-1.8-8.9-10.8l-6.1-10.5-8.8-.3c-4.8-.1-8.6.1-8.3.5.2.4 3.2 5.7 6.7 11.7 3.4 6 6.3 12.1 6.3 13.4 0 4.5-5.6 6.8-8.7 3.7-.8-.9-5-7.7-9.2-15.1-4.3-7.5-8.3-13.8-8.9-14-.7-.3-4.6-.4-8.8-.2l-7.7.3 8 14c4.4 7.7 8 14.4 8 15 0 1.8-2.3 4.2-4.6 4.9-3.4 1-5.7-1.8-15.3-18.4l-8.9-15.5-4.3-.3c-3.9-.2-4.6.1-6 2.5-.8 1.5-6.4 11.2-12.4 21.5l-10.8 18.8 2.4 4.5 2.4 4.5h17.9c19.4 0 21.6.6 21.6 5.5 0 4.6-2.5 5.4-18.2 5.7l-14.5.3 4.5 7.7 4.5 7.8H1595l1.6 2.6c1.6 2.4 1.6 2.7-.3 5.2-1.9 2.6-2.4 2.7-13.6 3.2l-11.6.5 3.5 6.2 3.5 6.3h11.2c12.7 0 15.7 1.1 15.7 5.9 0 4.4-1.6 5.1-11.2 5.1-4.8 0-8.8.2-8.8.4 0 .3 1.5 3.1 3.4 6.3 4.7 8 5.2 10.4 2.7 12.7-3.7 3.4-7.1 1.8-11.1-5.2-5.4-9.3-5.3-9.3-9.4-2-2 3.6-4.5 7.3-5.6 8.3-2.5 2.3-6.7 1.3-8.2-2-1-2.2-.4-3.7 5.1-13.2l6.3-10.8-3.4-6.3c-1.8-3.5-3.8-6.7-4.4-7.3-.8-.6-3.2 2.6-8 10.8-6.3 10.8-7.2 11.8-10.1 12.1-2.5.3-3.5-.2-4.8-2.2-2-3-2.3-2.2 8.4-20.8l7.3-12.7-4.3-7.5-4.3-7.6-4.7 8.3c-8.3 14.4-11.8 19.7-13.5 20.4-2.3.9-6.8-1.8-7.2-4.2-.1-1.1 4-9.5 9.3-18.7 9.6-16.7 9.6-16.7 8-19.8l-1.6-3h-51.4l-2.1 3.7-2.1 3.6 8.9 15.4c5.5 9.5 8.8 16.2 8.6 17.6-.4 2.9-5.2 5.6-7.5 4.1-1-.6-4.9-6.5-8.8-13.2-3.8-6.7-7.2-12.1-7.5-12.2-.3 0-2.4 3.4-4.8 7.6l-4.3 7.5 5.9 10.2c9.1 15.6 9.4 16.4 8.2 18.8-1.4 2.5-5 3.9-7.2 2.8-.9-.5-4.2-5.3-7.4-10.6-6.4-10.8-6-10.8-11.3-.8l-2.3 4.4 5.6 9.7c6.2 10.6 6.8 14 2.7 16-3.7 1.9-5.9.4-10.5-7.5l-4.3-7.3-3.9 6.8c-4.6 8-6.2 9.2-10.1 7.8-4.3-1.5-4.2-5.2.5-13.3l4-6.9-9-.4c-8-.3-9.2-.6-10.9-2.7-2.5-3-2.4-3.7.6-6.6 2.3-2.4 3-2.5 14.4-2.5h11.9l4-6.9 3.9-6.8-13.9-.6c-8.4-.4-14.5-1.1-15.4-1.8-2.2-1.8-1.7-6.6.8-8.3 1.8-1.3 5.4-1.6 18.9-1.6h16.7l4.1-7.1c2.3-3.9 4.1-7.3 4.1-7.5 0-.2-7.4-.4-16.4-.4-15.9 0-16.5-.1-18-2.2-2.1-3-2-4.4.4-6.8 1.9-1.9 3.3-2 21.5-2h19.4l1.5-2.9c1.5-2.8 1.3-3.2-11.2-24.9l-12.7-22.1-3.7-.1h-3.7l-9.1 16c-5 8.8-10 16.5-11 17-2.7 1.4-6.8-.4-7.6-3.4-.5-2 1-5.4 6.8-15.3 4-7 7.5-13.1 7.6-13.6.2-.4-3.5-.7-8.3-.5l-8.7.3-7.5 13c-4.1 7.1-8.2 13.8-9 14.7-2.1 2.4-4.8 2.3-7.4-.3-2.6-2.6-2.2-4.6 3.5-14.2 2.4-4.1 5.2-8.9 6.1-10.6l1.6-3.2-8.7.3-8.6.3-5.8 9.9c-5.8 10.2-7.8 12-11.7 10.5-4.1-1.5-3.9-5.1.6-13.4l4.2-7.5h-6.7c-7.3 0-10.4-1.6-10.4-5.3 0-4.1 2.8-5.7 10.2-5.7 3.7 0 6.8-.2 6.8-.4s-1.8-3.5-4-7.2c-5.5-9.5-5.2-14.4 1-14.4 3.3 0 4.4 1.3 10.9 12.7l5.3 9.3h15.7l-5.9-10.2c-3.3-5.7-6-11.3-6-12.5 0-1.3 1.1-3 2.5-3.9 4.3-2.8 6.5-.8 14.6 13.5l7.4 13.1h8.8c4.8 0 8.7-.2 8.7-.5s-3.1-6-7-12.8c-3.8-6.7-7-13.1-7-14.2 0-2.6 2.9-5.5 5.6-5.5 2.7 0 3.7 1.3 14 19.3l7.9 13.8 4.9-.3 4.8-.3 11.9-20.5c6.5-11.3 11.9-21.2 11.9-22 0-.8-.9-3-2-4.8l-2-3.2h-18.7c-15.9 0-18.9-.2-20.5-1.7-2.4-2.1-2.3-4.8.2-7.3 1.8-1.8 3.3-2 17-2 8.3 0 15-.3 15-.8 0-.4-1.7-3.6-3.8-7.2l-3.8-6.5-16.9-.3c-9.4-.1-17.4-.7-18.1-1.3-2.2-1.8-2.3-4.8-.2-7.4 1.9-2.4 2.3-2.5 14.9-2.5 7.1 0 12.9-.3 12.9-.8 0-.4-1.7-3.6-3.8-7.2l-3.8-6.5-12-.3c-10.7-.2-12.1-.4-13.6-2.3-2.3-2.7-2.3-4.4.2-6.9 1.7-1.7 3.3-2 10-2 4.4 0 8-.2 8-.5s-1.4-3.2-3.1-6.5c-3.1-5.7-3.1-6-1.5-8.5 1.4-2.1 2.4-2.6 4.8-2.3 2.6.2 3.7 1.2 6.2 5.5 1.7 2.8 3.4 5.5 3.8 5.8.3.4 1.9-1.5 3.4-4.2 6.4-11.3 8.6-12.9 13.3-9.7zm18.1 43.4c-.6 1.1-1.3 2-1.6 2-.2 0 0-.9.6-2s1.3-2 1.6-2c.2 0 0 .9-.6 2zm-3.2 5.5c-.6 1.4-1.3 2.3-1.5 2.1-.5-.5 1.5-4.6 2.2-4.6.3 0-.1 1.1-.7 2.5zm-64.3 70.5c.9 1.6 1.3 3 1.1 3-.3 0-1.2-1.4-2.1-3-.9-1.7-1.3-3-1.1-3 .3 0 1.2 1.3 2.1 3zm197 4c-.9 1.6-1.8 3-2.1 3-.2 0 .2-1.4 1.1-3 .9-1.7 1.8-3 2.1-3 .2 0-.2 1.3-1.1 3zm-193.7 2.5c-.3.3-.9-.2-1.2-1.2-.6-1.4-.5-1.5.5-.6.7.7 1 1.5.7 1.8zm60.6 105.1c.3.8.2 1.2-.4.9-.6-.3-1-1-1-1.6 0-1.4.7-1.1 1.4.7zm3.1 5.4c.9 1.6 1.3 3 1.1 3-.3 0-1.2-1.4-2.1-3-.9-1.7-1.3-3-1.1-3 .3 0 1.2 1.3 2.1 3zM2393.5 1447.7c-2.9.7-9.2 5.8-15.4 12.5-7.1 7.8-8.4 8.4-12.4 6-3-1.9-35.6-8.2-42.1-8.2-4.1 0-14.8 5.4-21.4 10.9-6.8 5.7-9.3 10.2-9.9 18.2-.8 9.4.7 11.3 15.5 20.2 16 9.6 22.7 12.6 29.4 13.3 5.8.6 10.8 2.2 10.8 3.5 0 .4.9 1.1 2 1.4 1.1.3 2 1.1 2 1.8 0 1.1 8.1 19.4 11.9 26.7 1.2 2.3 3.4 4.3 6.6 5.9 4.4 2.3 5.3 2.4 10.9 1.4 8.2-1.4 16.8-5.1 16.4-7.1-.2-.9-3-3.1-6.3-5.1-3.3-1.9-9.3-6.9-13.3-11-6.8-6.9-7.2-7.6-5.6-8.8 2.5-1.8 3.8-1.6 4.9.9.9 2.1 13.4 13.3 21.9 19.8 3.8 2.9 8.7 3.9 11.2 2.2.6-.4 2.1-2.5 3.2-4.8 3.1-6.1 4.7-7.1 8.2-5.1 1.5.9 3.6 1.7 4.5 1.7.9 0 6.8 1.8 13 3.9 17.2 6 23.2 6.7 43.5 5.3 9.5-.7 19.2-1.7 21.7-2.3 6-1.6 10.9-6.3 12.3-12.1 1.2-4.8 2.6-5.8 8.1-5.8 4.3 0 12.1 4.7 21.4 13.1 9.6 8.7 16.7 13.4 18.9 12.6 1.6-.6 9.7-16.2 12.2-23.7 2.5-7.2 2.7-27 .4-31.5-1.4-2.6-2-3-5.3-2.7-2.1.2-9.1 2-15.5 4.2-16 5.3-26.7 8-32 8-6.2 0-12.3-2-13.1-4.3-1.2-3.2-12-11.5-16-12.2-7.3-1.3-50.7-19.7-61.8-26.1-2.3-1.3-5-2.4-6.1-2.4-1.1 0-2.2-.7-2.6-1.5-.8-2.1-5.5-1.9-9.1.5-4.1 2.7-4.8 2.5-3-1 1.7-3.2 2-6.6.6-7.4-.4-.3-1.1-1.9-1.4-3.6-.5-2-1.4-3.1-3.1-3.6-1.3-.3-2.7-1.2-3-2-.4-1-1.8-1.4-4.3-1.3-2.1.1-4.5 0-5.3-.3-.8-.3-2.4-.4-3.5-.1zm-63.7 16.6c2 1.6 1.4 6.2-1.3 9-3.3 3.2-5.3 3.7-9.6 2.3-2.9-.9-3.5-1.6-3.7-4.4-.4-4 1.8-6.9 6.2-8 3.3-.9 6.3-.5 8.4 1.1z"/><path d="M2320.2 1465.7c-.7.2-1.7 1.4-2.3 2.5-1.5 2.7.5 4.8 4.7 4.8 3.1 0 3.4-.3 3.4-2.8 0-4.2-2.3-5.9-5.8-4.5zm2.8 3.3c0 .5-.5 1-1.1 1-.5 0-.7-.5-.4-1 .3-.6.8-1 1.1-1 .2 0 .4.4.4 1zM994.3 1536.7c-.7.2-1.3 1.3-1.3 2.4 0 1.5-.7 1.9-3.1 1.9-4.6 0-6.9 1.6-6.9 4.9 0 2-.8 3.4-2.5 4.5-2.9 1.9-3.3 5.7-1.1 12.9.8 2.6 1.2 4.7 1 4.7-.3 0-2.7-2-5.3-4.5-2.7-2.5-6.4-5-8.2-5.6-3-.8-3.6-.7-5.4 1.5-1.5 1.8-2.7 2.3-4.6 1.9-1.6-.3-4.2.3-6.5 1.5-4.3 2.2-48.5 15-71.1 20.7-7.8 1.9-19.6 4.3-26.2 5.3-10.6 1.6-12.6 2.2-17.6 5.5-3.1 2.1-6.7 4.2-8.1 4.7-1.3.5-3.4 2.5-4.5 4.4-1.8 3.1-2.6 3.5-7.6 4.2-7.6.9-14.4-1.1-30.3-9.1-10-5-14.6-8-20.7-13.5-11-10-15.9-13.3-20.2-13.4-3.4-.1-3.8.2-5.9 4.8-6.8 14.1-6.8 35.1-.2 57.4 3.9 13.2 13.8 36.9 15.7 37.6 1.8.7 9.1-2.4 13.7-5.9 1.9-1.4 6.7-7.4 10.7-13.2 4.1-5.8 8.7-11.4 10.4-12.5 3.7-2.2 8.7-2.3 14.8-.2l4.7 1.6v5.7c0 7.1 3.6 14.8 8.8 19.1 4.9 4 11.5 6.4 30.7 11 36.1 8.7 48.8 9.2 78.5 3 5.2-1.1 12.7-2 16.7-2 6.2 0 7.4-.3 8.3-2 1.9-3.5 3.8-2.3 5.4 3.4 2.2 7.3 5.4 10 11.7 9.4 5.1-.5 9.9-3.1 29.8-15.9 12-7.7 12.6-8 17.8-7.7l5.3.3-8 6.3c-10.5 8.3-20 13.8-28.2 16.3-5.8 1.8-6.8 2.4-6.8 4.4 0 1.7 1.6 3.3 6.3 6.3 14.2 9.3 26 12.3 35.1 8.8 5.1-2 12-8.9 14.3-14.4.8-2 3.6-6.6 6.2-10.2 2.7-3.6 6.2-8.6 7.9-11.1 2.8-4.2 3.6-4.7 7.9-5.2 2.7-.3 6.9-1.3 9.3-2.1 2.9-1 8.1-1.6 14.6-1.6 12 0 20.7-2 34.9-8 5.5-2.4 14.1-6 19-8 13.6-5.7 14.2-6 16.8-9.9 4.2-6.5 4.9-9.5 4.5-18.8-.2-6.8-.9-9.9-2.7-13.7-3.4-6.8-13.2-18.7-18.3-22.1-2.4-1.6-5.8-4.2-7.7-5.8-6.8-5.8-7.8-6-40.6-5.8-27.3.2-30.3.4-34.3 2.2-2.5 1-5.2 1.9-6.1 1.9-2.4 0-6-4.1-13.1-14.8-6.7-10.3-14-18.6-18.2-20.8-3.1-1.6-8.4-1.9-9.3-.4-.3.5-1.9.1-3.8-1-3.3-2-4.2-2.2-6.4-1.3zm122.2 42.4c5.2 2.1 8.5 7 8.5 12.6 0 5.3-2.7 7.4-10 7.6-4.9.2-5.3 0-9.6-4.5-5.1-5.4-5.8-9.7-2.4-14.1 2.8-3.6 7.4-4.1 13.5-1.6z"/><path d="M1109.7 1583.7c-.8 1-1.8 3-2.2 4.5-1.6 6.5 10.3 9.8 13.6 3.7.7-1.4.5-2.7-.6-4.9-2.6-5-7.8-6.6-10.8-3.3zm5.3 4.8c1 1.2 1 1.5-.4 1.5-.9 0-1.6-.7-1.6-1.5s.2-1.5.4-1.5.9.7 1.6 1.5zM1827.9 1565.1c-5.3.8-12.8 4.4-18.4 8.9-3.7 2.9-4.1 3-5 1.4-3.4-6-9.4-8.1-19.3-6.9-12.9 1.6-26.5 9.7-41.8 25-13.8 13.8-36 41.9-54.4 69-9.3 13.5-17.7 22.7-23.6 25.6-7 3.3-12.4 2.4-27.9-4.8-7.4-3.5-15.6-6.6-19-7.2-3.3-.6-18.1-1.3-33-1.5-14.8-.3-38.2-1.5-52-2.7-15.3-1.3-36.1-2.2-53.5-2.5-20.3-.2-30.7-.8-36.3-1.9-9.9-1.9-17.1-1.9-28.1 0-15.5 2.7-30 9.6-40.8 19.3-2.9 2.7-9.3 7-14.3 9.6-18.8 10.1-27.8 17.4-44.3 35.9-22.2 25.1-29.6 35.1-36.8 50-7.4 15.4-9.8 29.2-8.5 48.7.1 1.4-.4 5.3-1 8.7-1.1 5.2-1 7.4.4 14.7 3.1 15.7 13.3 35.4 22.9 44.2 5.7 5.3 22.2 13.6 44.3 22.4 9.9 3.9 24.8 10.5 33 14.7 14.9 7.5 36.9 17.7 56 25.8 45.6 19.3 86.3 27 126 23.6 23.1-2 27.3-3.8 42.4-19 17.8-17.8 48.5-65.1 55-84.8 4.1-12.3 2-21.1-5.4-23.2-6.8-1.9-14.5 2.7-14.5 8.5 0 12.4-34.1 66.8-53.6 85.5-3.8 3.6-7.9 7.1-9.1 7.7-3.6 2-25.9 3.5-41.8 2.9-23.4-.9-48.5-6.4-74.6-16.3-16.1-6.1-54.7-23.3-71.9-32.1-7.4-3.8-22.3-10.4-33-14.7-35.4-14.2-39.4-17.1-47.5-33.7-4.1-8.5-7.4-19.4-6.1-20.6.3-.3 16 4.7 34.9 11.1 18.9 6.4 35.6 11.6 37.1 11.6 6.4 0 10.5-4.4 10.6-11.2 0-7.1-2.3-9-17.5-14.7-7.1-2.6-24.6-9.4-38.8-15.1l-25.8-10.2.6-4.2c1.9-11.1 6.6-22.3 13.8-33.1 7.4-11.1 33.7-41.3 41.5-47.9l4.7-3.8.5 14.3c.5 13.2.7 14.9 3.3 20.1 7.4 15.1 28.3 25.2 54.7 26.5 8.9.4 13 .2 18-1.1 24.5-6.3 46-26.4 53.7-50.3 4.5-13.9 3.5-28.4-3.2-43.7-.8-1.9-.4-1.9 14.1-1.3 8.2.4 23.2 1.3 33.4 2.2 31.1 2.4 52.1 3.5 69.7 3.5h16.8l8 3.6c4.4 2 11.6 5.3 16 7.2 7.6 3.5 8.6 3.7 18.5 3.7 9.7 0 11-.2 17-3.1 12.2-5.8 21.8-15.6 36-36.9 7.2-10.7 28.6-39 37.3-49.3 9.4-11.2 23.4-24.2 29.6-27.6l5.1-2.7v3.6c0 7.9 4.9 13.5 11.7 13.5 3.8-.1 10.4-3.2 17.9-8.5 3.4-2.5 6.5-4.5 6.8-4.5.3 0 .6.9.6 2.1 0 1.2 1.5 3.6 3.4 5.5 3.1 3.1 3.9 3.4 9.3 3.4 3.2 0 9.5-.9 14.1-1.9 6.9-1.6 8.2-1.7 8.2-.4 0 2.8-3.3 7.9-8.1 12.4-4.2 3.8-4.9 5.1-4.9 8.3 0 6.5 2.9 10.2 9.8 12.1 1.4.4 4.2-.3 7.7-1.9 3.1-1.4 7.1-2.8 9-3.2l3.4-.6-6.4 19.2c-7.8 23.7-10.4 36.3-8.4 40.5 2.5 5.1 6.2 7 14.9 7.3 14 .7 23.4-3.7 41.1-19 5.7-4.9 11.6-9.9 13.2-11l2.7-1.9v2.6c0 4.3 2.7 9.3 6.2 11.5 5.3 3.2 12.1 2.7 24.5-2l10.6-4 7.1 4c16.2 9.3 25.2 12.4 149.1 51.5 108.5 34.2 172.4 50.7 210.5 54.5 14.4 1.4 16.8 2.5 37.5 16.9 8.8 6.1 19.3 12.8 23.3 14.8 7 3.5 7.3 3.8 9.4 9.5 4.4 12.2 10.2 17.1 24.5 20.7 17 4.3 30.8 6.1 47.6 6.1 32.5 0 51-4.7 106.7-27 33.8-13.5 32-12.8 74.5-33 34.2-16.3 60.5-27.8 74.8-32.9 4.9-1.7 9.1-3.1 9.3-3.1 1.7 0 12.1 29 15.2 42.5 4.5 19.2 5.7 30.9 5.6 54.5 0 45.8-9.5 87-32.9 143.5-3.7 8.8-7.1 17.2-7.7 18.7-.5 1.6-1.3 2.8-1.7 2.8-.4 0-6.8-3.1-14.2-6.8-17.7-8.9-32.7-18.6-65.9-42.7-51.3-37.1-70.6-48.2-96-54.9-24.3-6.5-40.7-5.6-74 4-4.7 1.4-14.8 3.4-22.5 4.5-17.1 2.3-28.8 4.6-103.5 20.4-155.2 32.8-219.6 43.1-273.5 44.1-27 .5-29.9 1.1-32.6 6.1-3 5.5-.6 13 5.2 16.1 3.2 1.8 45.4.9 65.9-1.3 61.1-6.5 118.6-16.9 269.5-48.8 41.8-8.9 67.6-13.9 68.2-13.4.6.7 2.2 10.5 2.8 18.2.8 9.1-.5 18.9-3.6 27.1-4.2 11.3-18 22.5-37.3 30.4-25.2 10.3-130.1 31.2-191.1 38.1-15.6 1.8-22.4 2-38.5 1.6-38.3-1.1-68.4-6-119.8-19.7-13.9-3.7-33.6-6.5-59.2-8.5-25.1-1.9-24.3-2-27.4 1.1-4 4.1-3.3 10.9 1.4 13.4 1.1.6 10.7 1.7 21.2 2.5 36 2.8 42.5 3.8 67.8 10.5 58.5 15.7 111.4 21.3 154.5 16.6 50.7-5.7 149.6-24.2 184.9-34.7 18.9-5.6 39.2-17.2 49-28 13.4-14.8 18.2-36.2 14.2-62.8-.8-5.8-.9-8.4-.2-8.6.6-.1 7.9-2.1 16.1-4.4 20.4-5.6 30-6.8 42.3-5.3 26.2 3.3 49.8 15.8 100.9 53 44.8 32.6 65.9 45.4 90.5 54.6 11.4 4.2 13.4 4.4 17.8 1.3 3.6-2.4 7.7-11.1 21.5-45.7 38.4-96.7 41.4-176.3 9.3-247.5-5.3-11.8-8.5-16.1-12.8-17-1.6-.3-6.7.3-11.4 1.4-16.8 4-45.3 16-101.6 42.9-33.2 15.8-79.7 35.1-104 43.2-34.3 11.4-59.7 13.4-89.5 7.1-16.3-3.5-16.6-3.7-19.5-11-3.7-9.1-8.8-14.6-17.4-18.7-4-1.8-13.9-8.1-22.1-13.9-8.3-5.8-19-12.6-24-15-8.6-4.4-9.6-4.6-23.5-6.1-42.9-4.4-112.7-23.3-253.5-68.4-22.5-7.3-50.9-16.3-63-20.2-14.4-4.6-24.3-8.4-28.7-10.9-11-6.4-21-10.9-24.4-10.9-1.8 0-6.1.9-9.6 2-3.4 1.1-6.6 2-6.9 2-.4 0-1-2-1.3-4.5-1.4-9.3-8.1-13.4-18.7-11.5-10.5 1.9-19 6.9-34.2 20.2-9.4 8.2-17.6 14.3-18.2 13.6-.2-.2 2.6-9.1 6.2-19.8 5.8-17.3 6.5-20.2 6.1-25.6-.6-8.9-6.1-15.9-14.1-17.9-2.3-.6-2.5-1-2.4-7.9.1-14.4-6.9-22-20.2-22-3.6 0-8.3.3-10.3.7l-3.7.8.6-5.4c.5-4.9.3-5.7-2.3-8.6-3.5-3.8-7.4-5-13.5-4zm-384.8 127.6c7.7 2.5 15.2 10 17.3 17.2 2.1 7.1 2 12.6-.2 19.9-4 12.5-14.8 24.5-28.2 30.9-6.9 3.4-8 3.6-16.5 3.5-14.3-.1-28.9-4.6-34.4-10.6-2.2-2.4-2.4-3.3-2.5-15.8-.1-13.1-.1-13.4 3.2-20 5.5-11.3 17.7-20.5 32.7-24.9 8-2.4 21.6-2.4 28.6-.2z"/><path d="M1410.8 1702.4c-7.3 2-16.4 9.7-21.4 18.2-2.2 3.7-2.8 6-2.8 11-.1 5.4.3 6.8 2.9 10.6 4.6 6.4 12 9.9 22.8 10.5 10.4.7 17.2-.8 22.1-4.9 19.8-16.3 1.3-52-23.6-45.4zm17 11.8c1.8 1.8 1.4 6.3-.8 8.3-4.5 4.1-11-1.8-7.6-7 1.8-2.7 6.3-3.4 8.4-1.3zM1716.2 1693.6c-2.7 1.9-3 7.4-.4 9.6 1.1.9 6.8 2.1 15.7 3.2 20.2 2.4 54.4 7.8 89.5 14.2 84.9 15.4 157.8 33 207 49.9 30.7 10.6 60.2 19.1 125.5 36.4 89.1 23.6 143.2 36.7 171.5 41.6 10.7 1.8 27.4 4.7 37 6.4 31.6 5.4 38.4 5.5 39.6.5 1.7-6.6-1.3-8.7-13.6-9.9-5.9-.5-52-8.2-73-12.1-27.9-5.2-161.3-39.3-231-59.1-10.7-3-32.1-9.7-47.5-14.8-40.5-13.6-75.6-23.1-126.5-34.4-56.4-12.5-129.2-25.7-171.3-31.1-19-2.4-19.7-2.4-22.5-.4zM1918.5 1787.4c-3.3.7-11.8 2.9-19 4.9-7.1 2-26.3 6.8-42.5 10.6-46.1 10.9-66.7 16.8-89 25.6-23.4 9.2-52.8 25.4-55.5 30.5-3.3 6.4-.8 13.1 5.9 16.1l4.3 1.9.7 7.2c1.7 19.6-3.7 61.5-11 84-4.3 13.2-8.4 19.6-13.9 21.6-6 2.3-23.7 1.9-36.2-.7-5.5-1.2-11.8-2.1-13.8-2.1-9.6 0-15.2 8.8-11 17 1.9 3.7 4 4.8 11.2 6.1 7.6 1.4 10.7 3.4 19.5 12.8 7.4 7.8 13.6 15.9 36.3 47 34.1 46.6 61.7 72.9 93 88.9l7 3.5-9.2 4.3c-19.6 9.1-41.3 15.8-60.2 18.5-12.1 1.7-34.5.7-44.1-2.1-20-5.7-36.3-19.1-45.7-37.5-2.8-5.5-5.8-12.7-6.7-16-3.7-14.8-7.3-53.2-10.6-114.4-1.2-21.8-1.9-24.4-8-28.6-5.4-3.7-18.4-7.8-25.3-7.9-5.4-.1-6.1.2-8.8 3.2-4.1 4.6-4.1 11.1 0 15.2 1.6 1.6 4.1 3.2 5.7 3.5 1.6.4 5.2 1.3 7.9 2.1l5.1 1.3 1.7 31.3c2.6 46.2 5.7 77.5 9.4 96.3 4.4 22.7 21.4 47.8 41.1 60.9 18.4 12.2 39.2 17.3 66.2 16.3 33.8-1.3 70.8-13.1 106.3-34.1 11.4-6.7 13.7-9.2 13.7-15.3 0-6.4-3.2-9.2-14.3-12.7-37.8-11.7-67.8-38-110.5-96.9-6.1-8.5-14.5-19.8-18.7-25.3l-7.5-9.9 6.7-1.2c21.7-4 32.6-19.5 40.7-58 4.7-22.6 6-34.4 6-58.8.1-12.7-.1-25-.4-27.4l-.5-4.4 9.5-4.8c25.7-13.1 52.1-21.5 113-35.9 14-3.3 33.1-8.1 42.5-10.6 19.1-5.2 25.9-5.5 36.8-1.6 22.8 8.2 46.3 38.1 57.5 73.2 4.7 14.8 6.3 23.4 6.9 38.1.7 16.8-.9 25.4-7.2 38.4-7 14.6-15.6 24.1-49.9 56-14.7 13.6-24.7 24.9-28.2 31.6-1.3 2.6-4 10.2-6 17-3.9 13.4-5.5 17.2-8.6 20.6-4.4 4.8-12 3.8-27.3-3.7-11.4-5.5-20.1-11.2-40-26-7.7-5.8-22.6-15.8-33-22.3-22.3-13.8-34.1-22.4-50-36.5-11.2-9.9-11.7-10.2-16.3-10.2-7 .1-11.2 4.2-11.2 11.2 0 4 1.4 6.2 8.3 12.7 15.4 14.5 31.6 26.5 59.2 43.8 10.5 6.5 24.4 15.9 31 20.9 23.5 17.9 42.7 29 57.3 33.4 9.7 2.9 23.5 2.5 30-.9 10.2-5.3 16.2-15 22.7-36.6 2-6.6 4.8-13.8 6.3-15.9 1.5-2.2 11-11.8 21.2-21.5 38.8-36.9 46.1-45.3 55-63.5 7.9-15.8 9.3-22.8 9.4-43.6 0-14.3-.4-19.6-2.2-28.8-7.5-37.2-27.8-74.5-50.8-93.4-15.4-12.6-29.8-18.6-46.4-19.3-5.7-.3-11.9.1-15.5.9zM2551.8 1851.7c-3 .7-3.3 4.8-.5 8.5 7.6 10.2 8.9 20.9 5.1 42.4-.6 3.2 1.4 6.4 4.1 6.4 2.9 0 4.2-3.1 5.5-13.4 1.7-13.8.9-23.9-2.4-31.1-4.5-9.9-8-13.6-11.8-12.8zM378.5 2345.5c-32.4 12.9-60.7 24-62.8 24.9l-3.9 1.5 3.6 6.3c2 3.5 4.1 6.2 4.8 6.1.7-.2 16.1-6.4 34.2-13.8 18.2-7.4 33.2-13.3 33.4-13 .2.2-12 14.2-27.2 31.1-15.2 16.9-27.5 30.9-27.3 31 .1.1 18.6-3.3 41.1-7.7 22.6-4.3 41.1-7.7 41.2-7.6.2.2-13 10.1-29.2 22.2-16.2 12-29.7 22.1-29.8 22.4-.2.3 1.2 3.4 3.2 6.8l3.6 6.2 4.3-3.2c14.1-10.6 104-79.2 103.9-79.4-.1-.1-22.2 4.1-49.1 9.3-27 5.1-49.4 9.2-49.9 9.1-.7-.2 45.7-52.9 64.2-73 1.4-1.5 2.2-2.7 1.6-2.6-.5.1-27.4 10.6-59.9 23.4zM418.9 2444.9c-17.4 5.6-30.5 18.5-34.4 33.9-2.1 8.2-1.3 14.5 2.8 21.4 3 4.9 11.2 11.8 14.1 11.8.6 0 5.6-2.9 11.1-6.5l10-6.5h-4.4c-13.5 0-21.5-9-18.1-20.2 1.5-5.2 9.4-13.6 16.1-17.3 6.5-3.5 16.9-4.6 21.5-2.2 7.9 4.1 10.3 11.8 6.6 21.4-1.3 3.3-1.5 5-.8 4.5.7-.4 5.4-3.4 10.5-6.7l9.3-6-.7-4.9c-1.4-10.8-9.1-20.2-18.8-23.1-6.7-2-17.9-1.8-24.8.4zM465.3 2491.9c-32.6 17.4-59.5 32-59.8 32.3-.6.6 7.2 11.8 8.2 11.8.3 0 14.9-7.9 32.4-17.6 17.6-9.7 32.2-17.5 32.4-17.3.2.2-10 15-22.7 32.9-12.6 17.9-23.4 33.3-23.9 34.2-.8 1.5-.4 1.5 4.8-.2 6-2 71.6-22.8 74.3-23.5.8-.3-.8 1.7-3.6 4.3-19.7 18.2-49.4 46.6-49.4 47.2 0 1.2 8.1 11.5 8.8 11.1 1.2-.7 97.2-93.5 96.9-93.7-.1-.2-21.4 6.4-47.2 14.6-25.9 8.3-47.5 14.9-48.2 14.7-.6-.1 11.9-18.7 27.8-41.2 15.9-22.6 28.9-41.1 28.9-41.3 0-.3 2.1-1.5-59.7 31.7zM520 2584.6c-29.9 25-33 28.9-33 41.6 0 7.9 1.9 12.4 7.2 17.5 4.5 4.4 9.6 6.3 16.6 6.3 10.8 0 14.4-2.4 57.6-38.6l2.8-2.4-2.8-3.7c-6.8-8.5-3.7-9.6-25.5 8.7-20.6 17.2-25.1 20.2-30.7 20.2-4.9 0-9.4-4.6-9.4-9.6 0-5.9 3.8-10 24.7-27.6 10.7-9 19.5-16.5 19.5-16.8 0-.8-8.2-10.2-8.9-10.2-.4 0-8.5 6.6-18.1 14.6zM552 2643.1c-14.6 13.2-27.6 25-28.9 26.3l-2.4 2.4 4.9 5.1 4.9 5 16.5-15.1c18.2-16.5 22.8-20.1 28.1-21.6 6.1-1.7 11.9 2.1 11.9 7.7 0 2.7 1 2.6 9.5-.9l7-2.8-.2-3.8c-.5-7.2-6.4-12.4-14.3-12.4h-4.4l2.1-2.1 2.2-2.2-4.2-4.8c-2.3-2.7-4.6-4.9-5.2-4.9-.5.1-12.9 10.9-27.5 24.1zM655.6 2664.1l-23.6 23.1v-6.1c0-9.9-5-17.3-13.6-20.1-4.9-1.7-15.5-.8-22.4 1.9-11.8 4.5-24.7 16.9-31.2 29.9-2.6 5.2-3.2 7.9-3.6 14.5-.3 7.2-.1 8.7 2 12.7 3.5 6.5 9 10 16.7 10.7l6.2.6-2.1 2.2c-1.1 1.2-2 2.6-2 3.1 0 1.5 8.7 9.7 9.8 9.3 1.6-.7 97.2-94.4 97.2-95.4 0-1.1-8.1-9.5-9.1-9.5-.4 0-11.3 10.4-24.3 23.1zm-39.5 15.5c6.4 6.1 6 15.1-1 24.4-10.9 14.3-25.4 19.3-33.7 11.7-3.1-2.8-3.7-4.1-4.2-8.5-.4-4.2 0-6.2 2.2-10.6 3.3-6.7 13.8-16.8 19.8-19 6.4-2.3 13.2-1.6 16.9 2zM648.5 2712.8c-17.1 5.9-31.5 22.4-34.6 39.6-2.6 14.2 3.4 26.5 15.3 31.6 4.4 1.9 6.5 2.2 13.7 1.8 11.5-.5 19.7-4.5 29.2-14 25-25 18.1-60.8-11.6-60.7-4 0-9.1.7-12 1.7zm16.5 15.4c7.9 5.4 9.7 13.7 5.1 22.8-3.2 6.1-12.4 15.4-17.7 17.9-9.4 4.5-18.4 1.8-22.4-6.5-3.8-7.7-1.1-16.2 8.4-26.2 8.9-9.5 19.6-12.7 26.6-8zM763.3 2745.8c-14.5 5.2-25.3 19.8-25.3 34.1 0 5.6 1.7 12 5.9 22.4 5.3 13.3 3.7 22.5-5.4 30.5-4.1 3.6-10 6.2-14 6.2-3.3 0-8.5-3.2-10.6-6.7-3.1-4.9-2.3-12.5 2-19.4 1.7-2.8 3-5.2 2.9-5.3-.2-.2-3.2-1.5-6.7-2.9-4.5-1.9-6.7-2.4-7.6-1.7-.6.5-2.7 4.3-4.5 8.2-4.2 9.1-5.3 21.1-2.6 28.3 2.2 5.6 8.5 11.9 14.1 14.1 7.2 2.7 18.4 1.6 26.3-2.6 7.6-4 17.9-14.6 21.6-22.1 5.9-12.1 5.5-21.4-1.4-38.8-2.3-5.7-4-11.5-4-13.8 0-10.9 13.4-18.9 22-13.1 5 3.4 6.2 6.2 5.6 13l-.6 5.8h14.9l.7-4.5c.3-2.5.4-7.6.2-11.5-.3-5.7-.9-7.7-3.4-11.2-6.6-9.4-18.8-13-30.1-9zM796 2800.3c-8.4 11.3-8.5 11.4-10.9 9.9-2.3-1.5-2.5-1.5-4.7 1.3-1.4 1.7-3.6 4.7-5.1 6.8-2.4 3.5-2.5 3.8-.9 5.5.9 1 1.6 2.2 1.6 2.5 0 .4-8.1 11.6-18.1 24.8-9.9 13.2-17.9 24.3-17.6 24.5.2.3 2.8 2.3 5.7 4.4l5.3 3.9 18.4-24.4c10.1-13.5 18.6-24.5 19-24.5.3 0 2.1 1.1 3.9 2.5 1.8 1.4 3.7 2.5 4.1 2.5.5 0 3.1-3 5.8-6.6 5.4-7.4 5.5-6.2-1.3-11.2l-2.3-1.7 8.6-11.4c4.7-6.3 8.5-11.7 8.5-12-.1-.7-8.5-7-10.3-7.7-.7-.2-4.7 4.2-9.7 10.9zM809.9 2839.8c-6.7 2.7-13 7.4-18.8 13.8-14.1 15.8-19.1 37.7-11.5 50 4.4 7.1 9.8 9.9 19.1 9.8l7.2-.1-2 2.9c-1.2 1.6-2 3-1.8 3.2.2.1 2.8 1.9 5.8 4 2.9 2.1 5.7 3.4 6.1 2.9.4-.4 10.4-14.5 22-31.3 11.7-16.8 21.7-31 22.2-31.7.6-.8-.9-2.4-4.9-5.3l-5.8-4.1-2.6 3.2-2.6 3.2-.7-4.2c-1-6.5-4.2-11.8-8.8-14.8-5.4-3.6-15.9-4.3-22.9-1.5zm15.6 17.2c7.1 4.4 8.3 14.5 3 25-7.5 14.7-21.4 21.9-30.6 15.7-4.5-3-5.9-6-5.9-12.7 0-7.1 3.3-14.3 9.7-21.1 7.9-8.5 16.9-11.1 23.8-6.9zM877.4 2857c-4.2 6.6-8 12-8.3 12-.3 0-1.5-.7-2.5-1.5-1.8-1.4-2.2-1-6.3 5-2.4 3.5-4.3 6.9-4.3 7.4s.9 1.6 2 2.4c2 1.4 1.6 2.2-14.5 27-9.1 14-16.5 25.9-16.5 26.4s2.5 2.4 5.6 4.3c5.3 3.2 5.7 3.3 6.9 1.6.7-.9 8.2-12.5 16.7-25.6 8.4-13.2 15.6-23.9 16.1-24 .4 0 2.5 1.2 4.7 2.6 2.2 1.5 4.2 2.5 4.3 2.3 2.1-2.9 8.7-13.7 8.7-14.2 0-.3-1.8-1.6-4-2.8-2.2-1.3-4-2.6-4-3 0-.5 3.4-6 7.5-12.4 4.1-6.3 7.5-11.7 7.5-11.9 0-.4-10.8-7.6-11.4-7.6-.2 0-3.9 5.4-8.2 12zM912.8 2852.3c-8.2 6.6-6.7 19.7 2.2 19.7 8.4 0 15.3-12.9 10.4-19.8-2.1-3.1-8.9-3.1-12.6.1zM892.6 2887.2c-.8 1.3-10.2 16.5-21 33.8l-19.5 31.5 5.7 3.6c3.1 2.1 6 3.4 6.5 3 .4-.4 9.9-15.5 21.2-33.7 23-37 21.6-32.6 12.4-38.2l-3.8-2.3-1.5 2.3zM924.4 2909c-12.5 2.5-24 12.4-31 26.5-5.1 10.4-6.6 18.6-5.3 28.3 2.2 15.7 13.4 25.1 28.9 24 15.5-1.1 29.2-12.7 36.7-31.2 3.4-8.1 4.2-20.9 1.9-28.7-3.8-13.3-17.6-21.6-31.2-18.9zm9.3 17c7.8 3.5 10.6 11.3 7.9 21.4-4.4 15.8-17.6 27.4-28 24.5-11.5-3.2-14.6-14.7-7.9-29.1 3.9-8.4 8.6-13.6 14.8-16.4 6-2.9 7.8-2.9 13.2-.4zM959.5 2968.5c-13 25.6-17.4 34.9-16.6 35.9 1.2 1.4 10.9 6.1 11.5 5.5.2-.2 4.4-8.5 9.4-18.4 14-27.8 19.1-34.5 26.2-34.5 3.6 0 8.8 3.5 9.6 6.5 1.3 5.2-.7 10.4-12.5 33.7l-12.1 23.6 5.5 3.2c3.1 1.8 6.1 3 6.8 2.7.7-.3 7.2-12.4 14.6-27 13.3-26.2 13.4-26.5 13.9-34.4.4-6.7.1-8.6-1.7-12-3.8-7.5-11.7-11.2-20.3-9.4-2.8.6-5.3.9-5.5.7-.3-.2.1-1.4.7-2.6.6-1.2 1-2.3.8-2.5-.9-.8-10.9-5.5-11.7-5.5-.5 0-8.9 15.5-18.6 34.5zM1106.9 3005.7c-49.4 57.6-47.3 55.2-46.8 55.7.2.3 3.4 1.6 7.1 2.9l6.7 2.6 10.2-12c5.6-6.5 10.5-11.9 10.9-11.9.5 0 9 3.2 18.9 7.1l18.1 7.1-.7 12.7c-1.2 20.9-1.7 18.9 5.1 21.7 8.2 3.3 8.6 3.2 8.6-2.4.1-2.6 1.6-34 3.4-69.7 1.8-35.8 3.2-65.1 3.1-65.3-.1-.1-20.2 23-44.6 51.5zm27.7 10.1c-.7 11.6-1.5 21.4-1.7 21.6-.2.2-6.1-1.9-13.1-4.6l-12.8-5 2.3-2.8c5.4-6.7 26.1-30.9 26.3-30.7.1.1-.3 9.8-1 21.5zM1243.4 3027.6l-3.9 13.5-3-.5c-3-.6-3-.6-5.3 7.2-2.6 9.1-2.6 9.2-.9 9.2 4.2.1 4 1.2-4.8 30.9-4.8 16.1-8.5 29.4-8.3 29.6.2.2 3.2 1.3 6.6 2.3l6.1 2 1.5-4.7c.8-2.5 4.7-15.4 8.6-28.6 3.9-13.2 7.3-24.5 7.5-25.2.3-.9 1.5-.8 5 .4 2.6.8 5 1.2 5.4.7.6-.8 2.2-5.8 4.7-14.5.4-1.3-.7-2-4.6-2.9-2.7-.7-5-1.5-5-1.8 0-.4 1.8-6.5 4-13.7 2.1-7.1 3.6-13.3 3.2-13.7-.7-.6-10.9-3.8-12.2-3.8-.3 0-2.4 6.1-4.6 13.6zM1001.6 3035.5l-16.7 18.5 2.8 4c1.5 2.2 3.3 3.9 4 3.7.6-.1 8.8-7.8 18.2-17l17.1-16.8-4.1-5.5c-2.3-3-4.2-5.4-4.4-5.4-.1 0-7.7 8.3-16.9 18.5zM1177.7 3023.7c-.3.6-22.6 67.6-24.2 73-.3 1 10 5.3 12.6 5.3.4 0 4-9.8 8-21.8 8.2-24.7 10.5-29.8 15.1-33.7 2.6-2.2 3.9-2.6 7.1-2.2 2.1.3 5 1.6 6.3 2.8 4.2 3.9 3.4 9.2-5.6 36.3-4.4 13.3-8 24.7-8 25.3 0 .6 2.4 1.9 5.3 2.9 2.8.9 5.7 1.9 6.4 2.1 1.5.6 19-52.3 19.8-60.2 1.2-10.8-2.7-18.9-11-22.6-5.2-2.4-9.9-2.3-15.3.1l-4.3 2 .7-2.3c.3-1.2.7-2.6.8-3.1.1-.9-8.8-4.4-11.6-4.5-.9-.1-1.9.2-2.1.6zM1467.4 3048.8c-3.2 2.5-4.4 5.5-4.4 10.6 0 5.5 1.5 9 4.5 10.6 7.2 3.9 15.1-6.3 12.5-16-1.7-6.5-7.9-9-12.6-5.2zM1277.3 3056.4c-10.3 4.9-18.2 15.9-22.3 31-1.8 6.5-2.1 9.9-1.8 19 .3 9.6.8 11.8 3 16.1 3 5.7 8 10.9 12.1 12.4 5 1.9 12.9 1.3 18.1-1.3l4.7-2.4-.6 3.7-.6 3.7 6.6 1.6c3.6.8 6.7 1.3 6.9.9 1.4-2.5 19.6-75.5 18.9-76.1-.9-.8-9.3-3-11.6-3-.7 0-1.8 1.7-2.3 3.7l-.9 3.8-2.8-4.8c-5.9-9.9-16.9-13.3-27.4-8.3zm17.7 17.4c4.8 3.6 6.5 8 6.5 16.7 0 21.5-15.8 36.9-28 27.3-6.1-4.8-8-14.7-5-26.3 4.2-16.1 17.1-24.7 26.5-17.7zM1435.5 3058.4c-.2.6-1 6-1.9 12.1-2.5 16.5-2.2 15.7-5.5 15l-2.7-.6-1.3 8.1c-1.3 8.6-1 10 2 10 1.1 0 1.9.7 1.9 1.6 0 .9-2 14.7-4.5 30.6-2.5 16-4.4 29.2-4.3 29.3.2.1 3.3.6 6.9 1.1l6.7 1 2.6-16.6c1.4-9.1 3.6-22.7 4.7-30.4l2.2-13.8 5.3.5 5.2.5 1.2-7.1c.6-4 1.3-7.7 1.5-8.4.4-1.1-2.5-2.3-6-2.3-4.4-.1-4.5-.9-2.5-13.5 2.8-17.2 3.2-16-4.6-17.2-4.6-.6-6.7-.6-6.9.1zM1335.7 3067.7c-1.1 1.8-17 76.3-16.4 76.9.8.9 12 3.4 12.5 2.9.3-.3 2.7-10.4 5.3-22.5 2.7-12.2 5.9-24.4 7-27.1 4-9.3 10.9-12.4 16.3-7.4 1.5 1.4 2.9 2.5 3.1 2.5.5 0 9.5-14.5 9.5-15.4 0-.3-2.1-2-4.7-3.6-5.9-3.7-10.2-3.8-16.1-.4l-4.4 2.6.7-3c.6-3 .6-3-5.2-4.2-3.2-.7-6.1-1.4-6.5-1.6-.4-.3-.9-.1-1.1.3zM1391.9 3081.3c-25.5 9.6-35.5 51.1-17.3 72.6 6.4 7.6 19.3 11.1 28.9 7.9l4-1.3 2.2-10.5c1.2-5.8 2.2-11.1 2.3-11.9 0-.7-2 .5-4.4 2.7-6.1 5.6-11.1 7-17.1 4.7-14.2-5.4-14.9-31.6-1.1-44.3 5.7-5.3 10.2-6.1 16.4-3 3.8 1.9 5.3 3.4 7.9 8.3 3.6 6.8 3 7.6 6.2-8.3l1.8-9.2-2.9-2.6c-1.7-1.3-4.4-3.2-6.2-4.1-4.1-2.2-16.1-2.7-20.7-1zM1460 3092.1c0 .8-2.3 18.2-5.1 38.8-3.9 28.3-4.8 37.5-3.9 38.1 1.8 1.1 11.3 2.1 12 1.2.7-.7 11.2-77.3 10.8-77.8-.2-.1-3.3-.5-7-.9-5.4-.6-6.8-.5-6.8.6zM1503.9 3096.4c-10.6 3.7-19.8 15.2-23.5 28.9-1.9 7.1-1.8 22 .2 28.8 4.5 15.3 14.8 23.9 28.6 23.9 3.8 0 8.5-.7 10.7-1.6 4.3-1.7 4.5-2.1 5.7-17.3l.7-8.4-4.3 4.7c-8.9 9.6-20.3 8.5-26.3-2.7-3.2-6.1-3.2-21.1.1-28.2 7.6-16.5 22.9-17.7 30.8-2.3.9 1.6 1.9 2.7 2.2 2.3.4-.4 1.2-5.5 1.9-11.3l1.1-10.7-2.6-2.2c-5.8-4.9-17.6-6.7-25.3-3.9zM1555.5 3101.9c-4.6 2.1-11.5 9.2-14.3 14.8-9.4 18.3-7.6 45.7 3.8 58.7 5.2 5.8 10.1 7.9 18 7.4 5.8-.3 7.3-.8 11.9-4.1l5.3-3.8-.7 3.2c-.9 4.1.4 4.9 7.7 4.9 5.7 0 5.7 0 6.2-3.3.8-5.1 5-74.7 4.5-75.1-.2-.2-3.4-.6-7.1-.9l-6.8-.5v8.1l-5-4.7c-2.7-2.5-6.1-5.1-7.5-5.6-4.1-1.6-11.6-1.1-16 .9zm14.7 15.1c10 2.8 15.2 18.2 11.3 33.3-2.7 10.4-8.6 16.7-15.8 16.7-7.9 0-12.6-4.7-15.3-15.1-3.4-13.1 1.5-28.8 10.5-33.6 5.1-2.7 4.5-2.6 9.3-1.3z"/></svg>